# This file uses centimeters as units for non-parametric coordinates.

mtllib UVed Pot.mtl
g default
v 246.711926 36.890965 -151.224285
v 248.726370 41.183702 -152.076463
v 251.863931 44.590452 -153.403758
v 255.817451 46.777692 -155.076230
v 260.199965 47.531389 -156.930182
v 264.582498 46.777702 -158.784142
v 268.536054 44.590402 -160.456630
v 271.673597 41.183632 -161.783916
v 273.687972 36.890930 -162.636053
v 274.382094 32.132439 -162.929690
v 273.688059 27.373833 -162.636102
v 271.673564 23.081174 -161.783891
v 268.536054 19.674423 -160.456630
v 264.582475 17.487175 -158.784144
v 260.199965 16.733480 -156.930182
v 255.817451 17.487110 -155.076230
v 251.863931 19.674396 -153.403758
v 248.726370 23.081134 -152.076463
v 246.711926 27.373848 -151.224285
v 246.017822 32.132431 -150.930656
v 223.633937 38.999837 -189.118955
v 226.675777 46.027395 -190.405750
v 231.069109 50.111490 -192.264284
v 236.774769 53.268045 -194.677971
v 243.099513 54.355826 -197.353551
v 249.424289 53.268075 -200.029158
v 255.129935 50.111490 -202.442827
v 259.657956 45.194895 -204.358345
v 262.565129 38.999765 -205.588154
v 263.566850 32.132439 -206.011915
v 262.565129 25.264939 -205.588154
v 259.657942 19.069759 -204.358327
v 255.129935 14.153280 -202.442827
v 249.424289 10.996733 -200.029158
v 243.099513 9.909059 -197.353551
v 236.774769 10.996689 -194.677971
v 231.069129 14.153309 -192.264286
v 226.541100 19.069773 -190.348789
v 223.633937 25.264996 -189.118955
v 222.632178 32.132416 -188.695183
v 260.199965 32.132404 -156.930182
v 223.909649 39.483041 -187.807686
v 223.161825 32.132424 -187.327714
v 224.165587 25.251121 -187.752322
v 227.078648 19.043304 -188.984669
v 231.615824 14.116923 -190.904048
v 237.332998 10.953882 -193.322612
v 243.670587 9.863993 -196.003602
v 250.008126 10.953914 -198.684608
v 255.725384 14.116833 -201.103177
v 260.262547 19.043297 -203.022586
v 263.175617 25.251028 -204.254913
v 264.179428 32.132439 -204.679559
v 263.175680 39.013665 -204.254916
v 260.262633 45.221392 -203.022587
v 255.725384 50.147928 -201.103177
v 250.008214 53.310874 -198.684657
v 243.670587 54.400810 -196.003602
v 237.332998 53.310854 -193.322612
v 231.615787 50.147913 -190.904032
v 227.012730 46.095635 -189.120407
v 239.676344 38.584214 -154.479918
v 238.735239 32.132424 -154.081823
v 239.676372 25.680676 -154.479954
v 242.407567 19.860357 -155.635342
v 246.661556 15.241493 -157.434911
v 252.021860 12.275915 -159.702501
v 257.963817 11.254085 -162.216161
v 263.905778 12.275940 -164.729812
v 269.266119 15.241407 -166.997417
v 273.520116 19.860386 -168.796966
v 276.251284 25.680612 -169.952367
v 277.192386 32.132439 -170.350520
v 276.251284 38.584152 -169.952367
v 273.520126 44.404382 -168.796994
v 269.266096 49.023391 -166.997420
v 263.905833 51.988898 -164.729835
v 257.963817 53.010803 -162.216161
v 252.021860 51.988878 -159.702501
v 246.661538 49.023351 -157.434903
v 242.407567 44.404417 -155.635342
v 243.194133 37.737592 -152.852107
v 242.376523 32.132439 -152.506230
v 243.194128 26.527291 -152.852117
v 245.567007 21.470797 -153.855913
v 249.262734 17.457889 -155.419331
v 253.919655 14.881531 -157.389366
v 259.081889 13.993732 -159.573177
v 264.244131 14.881498 -161.756968
v 268.901070 17.457935 -163.727011
v 272.596811 21.470815 -165.290446
v 274.969653 26.527283 -166.294227
v 275.787281 32.132359 -166.640111
v 274.969699 37.737492 -166.294222
v 272.596811 42.794073 -165.290446
v 268.901070 46.806921 -163.727011
v 264.244131 49.383295 -161.756968
v 259.081889 50.271063 -159.573177
v 253.919655 49.383285 -157.389366
v 249.262734 46.806882 -155.419331
v 245.566966 42.794068 -153.855908
v 229.908576 40.546338 -162.069940
v 228.681282 32.132424 -161.550753
v 229.908576 23.718517 -162.069940
v 233.470402 16.128239 -163.576707
v 239.018119 10.104520 -165.923579
v 246.008635 6.237073 -168.880804
v 253.757695 4.904459 -172.158918
v 261.506736 6.237087 -175.437024
v 268.497275 10.104525 -178.394247
v 274.045028 16.128138 -180.741134
v 277.606848 23.718445 -182.247916
v 278.834160 32.132439 -182.767111
v 277.606830 40.546348 -182.247908
v 274.044987 48.136633 -180.741129
v 268.497325 54.160278 -178.394280
v 261.506736 58.027750 -175.437024
v 253.757695 59.360404 -172.158918
v 246.008635 58.027780 -168.880804
v 239.018115 54.160338 -165.923589
v 233.470402 48.136648 -163.576707
v 222.656949 40.243771 -181.602013
v 221.473767 32.132404 -181.101510
v 222.656986 24.021020 -181.602028
v 226.090698 16.703716 -183.054616
v 231.438924 10.896660 -185.317079
v 238.178061 7.168312 -188.167974
v 245.648441 5.883610 -191.328197
v 253.118872 7.168292 -194.488454
v 259.857986 10.896685 -197.339303
v 265.206223 16.703754 -199.601788
v 268.639936 24.021109 -201.054377
v 269.823127 32.132404 -201.554907
v 268.639936 40.243736 -201.054377
v 265.206223 47.561021 -199.601788
v 259.857986 53.368118 -197.339303
v 253.118840 57.096556 -194.488428
v 245.648441 58.381273 -191.328197
v 238.178061 57.096506 -188.167974
v 231.438924 53.368178 -185.317079
v 226.090698 47.561116 -183.054616
v 223.552473 38.323532 -194.653721
v 226.173384 43.908625 -195.762455
v 230.255452 48.340956 -197.489308
v 235.399242 51.186697 -199.665305
v 241.101157 52.167327 -202.077420
v 246.803108 51.186693 -204.489550
v 251.946866 48.340986 -206.665521
v 256.028978 43.908590 -208.392369
v 258.649845 38.323510 -209.501108
v 259.552954 32.132382 -209.883130
v 258.649845 25.941209 -209.501108
v 256.028938 20.356136 -208.392364
v 251.946866 15.923767 -206.665521
v 246.803107 13.078098 -204.489502
v 241.101157 12.097523 -202.077420
v 235.399242 13.078073 -199.665305
v 230.255489 15.923807 -197.489324
v 226.173384 20.356171 -195.762455
v 223.552509 25.941273 -194.653737
v 222.649428 32.132389 -194.271702
v 218.747296 40.113602 -191.872048
v 220.225388 40.107571 -188.425396
v 219.062109 32.132416 -187.933296
v 217.583088 32.132382 -191.379537
v 220.225443 24.157219 -188.425420
v 218.747296 24.151236 -191.872048
v 223.601542 16.962719 -189.853624
v 222.125955 16.951236 -193.301305
v 228.859959 11.253124 -192.078118
v 227.388329 11.237377 -195.527485
v 235.486014 7.587340 -194.881157
v 234.019356 7.568817 -198.332670
v 242.830995 6.324176 -197.988345
v 241.369907 6.304736 -201.442177
v 250.176008 7.587330 -201.095510
v 248.720450 7.568832 -204.551705
v 256.801983 11.253042 -203.898533
v 255.351453 11.237340 -207.356844
v 262.060402 16.962711 -206.123022
v 260.613838 16.951232 -209.582999
v 265.436534 24.157185 -207.551252
v 263.992504 24.151132 -211.012289
v 266.599866 32.132439 -208.043381
v 265.156757 32.132402 -211.504795
v 265.436589 40.107529 -207.551275
v 263.992541 40.113545 -211.012305
v 262.060467 47.302007 -206.123074
v 260.613870 47.313456 -209.583025
v 256.801983 53.011689 -203.898533
v 255.351453 53.027483 -207.356844
v 250.176041 56.677416 -201.095535
v 248.720450 56.695948 -204.551705
v 242.830995 57.940674 -197.988345
v 241.369907 57.960127 -201.442177
v 235.486014 56.677431 -194.881157
v 234.019356 56.695978 -198.332670
v 228.859959 53.011644 -192.078118
v 227.388341 53.027434 -195.527508
v 223.601523 47.302092 -189.853616
v 222.125955 47.313536 -193.301305
v 226.246572 37.944466 -191.279798
v 228.707014 43.187508 -192.320636
v 242.720734 32.132402 -198.248937
v 232.539133 47.348490 -193.941764
v 237.367967 50.019959 -195.984536
v 242.720739 50.940581 -198.248927
v 248.073543 50.019999 -200.513344
v 252.902362 47.348540 -202.556098
v 256.734518 43.187547 -204.177242
v 259.194905 37.944424 -205.218057
v 260.042698 32.132439 -205.576702
v 259.194905 26.320292 -205.218057
v 256.734518 21.077241 -204.177242
v 252.902362 16.916227 -202.556098
v 248.073557 14.244812 -200.513362
v 242.720739 13.324240 -198.248927
v 237.367967 14.244747 -195.984536
v 232.539168 16.916321 -193.941784
v 228.707014 21.077208 -192.320636
v 226.246604 26.320367 -191.279823
v 225.398797 32.132382 -190.921160
v 219.466520 40.245834 -189.127085
v 218.730980 40.248261 -190.847055
v 222.166665 47.569613 -192.300448
v 222.901165 47.565073 -190.580074
v 227.517796 53.379901 -194.564169
v 228.250782 53.373644 -192.843131
v 234.260658 57.110304 -197.416634
v 234.991658 57.103012 -195.694773
v 241.735209 58.395758 -200.578598
v 242.464004 58.388107 -198.855816
v 249.209780 57.110270 -203.740618
v 249.936364 57.102922 -202.016877
v 255.952612 53.379901 -206.593052
v 256.677216 53.373708 -204.868473
v 261.303806 47.569543 -208.856776
v 262.026902 47.565004 -207.131572
v 264.739485 40.248131 -210.310184
v 265.461505 40.245782 -208.584560
v 265.923300 32.132439 -210.810978
v 266.645002 32.132402 -209.085184
v 264.739485 24.016497 -210.310184
v 265.461503 24.018872 -208.584512
v 261.303806 16.695139 -208.856776
v 262.026806 16.699699 -207.131543
v 255.952612 10.884855 -206.593052
v 256.677216 10.891092 -204.868473
v 249.209737 7.154461 -203.740564
v 249.936354 7.161806 -202.016849
v 241.735209 5.869055 -200.578598
v 242.464004 5.876743 -198.855816
v 234.260658 7.154454 -197.416634
v 234.991650 7.161759 -195.694740
v 227.517796 10.884920 -194.564169
v 228.250782 10.891150 -192.843131
v 222.166665 16.695144 -192.300448
v 222.901204 16.699711 -190.580084
v 218.731000 24.016594 -190.847058
v 219.466548 24.018951 -189.127120
v 217.547151 32.132416 -190.346243
v 218.283053 32.132416 -188.626438
v 223.968771 40.922639 -173.138392
v 227.268573 40.905374 -165.474313
v 227.689920 48.852354 -174.712546
v 230.982385 48.819555 -167.045369
v 222.686655 32.132424 -172.595990
v 225.988888 32.132431 -164.932963
v 223.968771 23.342209 -173.138392
v 227.268573 23.359489 -165.474313
v 227.689920 15.412474 -174.712546
v 230.982385 15.445305 -167.045369
v 233.485741 9.119381 -177.164392
v 236.766861 9.164549 -169.492398
v 240.788888 5.079003 -180.253847
v 244.055701 5.132054 -172.575812
v 248.884496 3.686718 -183.678562
v 252.135405 3.742519 -175.993812
v 256.980113 5.078995 -187.103306
v 260.215117 5.132054 -179.411791
v 264.283242 9.119406 -190.192753
v 267.503945 9.164544 -182.495236
v 270.079069 15.412424 -192.644583
v 273.288411 15.445194 -184.942236
v 273.800216 23.342244 -194.218743
v 277.002274 23.359437 -186.513326
v 275.082433 32.132424 -194.761211
v 278.281959 32.132431 -187.054676
v 273.800218 40.922599 -194.218791
v 277.002243 40.905381 -186.513349
v 270.079083 48.852334 -192.644601
v 273.288433 48.819555 -184.942234
v 264.283247 55.145402 -190.192791
v 267.503981 55.100249 -182.495251
v 256.980117 59.185858 -187.103296
v 260.215117 59.132750 -179.411791
v 248.884496 60.578080 -183.678562
v 252.135405 60.522249 -175.993812
v 240.788902 59.185828 -180.253864
v 244.055670 59.132799 -172.575834
v 233.485725 55.145432 -177.164379
v 236.766879 55.100294 -169.492406
vt 0.104046 0.933225
vt 0.057391 0.886570
vt 0.228004 0.762612
vt 0.162836 0.963180
vt 0.228004 0.973502
vt 0.293172 0.963180
vt 0.351961 0.933225
vt 0.398618 0.886569
vt 0.428571 0.827780
vt 0.438893 0.762612
vt 0.428572 0.697443
vt 0.398617 0.638655
vt 0.351961 0.591999
vt 0.293172 0.562045
vt 0.228004 0.551723
vt 0.162836 0.562044
vt 0.104046 0.591999
vt 0.057391 0.638654
vt 0.027436 0.697443
vt 0.017115 0.762612
vt 0.027436 0.827781
vt 0.728196 0.764606
vt 0.533486 0.735415
vt 0.552036 0.676675
vt 0.587831 0.626542
vt 0.637364 0.589924
vt 0.695790 0.570405
vt 0.757388 0.569895
vt 0.816128 0.588446
vt 0.866261 0.624240
vt 0.902878 0.673774
vt 0.922398 0.732200
vt 0.922907 0.793797
vt 0.904357 0.852538
vt 0.868563 0.902670
vt 0.819028 0.939288
vt 0.760603 0.958808
vt 0.699005 0.959316
vt 0.640265 0.940767
vt 0.590132 0.904972
vt 0.553514 0.855438
vt 0.533995 0.797012
vt 0.423095 0.302420
vt 0.429656 0.321361
vt 0.417023 0.329466
vt 0.409151 0.305734
vt 0.441169 0.337354
vt 0.431263 0.349812
vt 0.456532 0.348623
vt 0.451173 0.364320
vt 0.474393 0.352825
vt 0.474661 0.369949
vt 0.492170 0.350432
vt 0.497464 0.366176
vt 0.507744 0.341926
vt 0.517130 0.354489
vt 0.519615 0.328691
vt 0.532179 0.337238
vt 0.528728 0.311473
vt 0.542444 0.316104
vt 0.532572 0.292613
vt 0.546739 0.293073
vt 0.531197 0.273577
vt 0.544858 0.269839
vt 0.524548 0.255739
vt 0.537011 0.248136
vt 0.514078 0.240485
vt 0.524020 0.229279
vt 0.499722 0.229378
vt 0.506229 0.215058
vt 0.482675 0.223616
vt 0.484920 0.207236
vt 0.464641 0.224090
vt 0.462218 0.207533
vt 0.448642 0.231754
vt 0.441583 0.217174
vt 0.435347 0.245035
vt 0.424775 0.234213
vt 0.426156 0.262479
vt 0.413273 0.256146
vt 0.421908 0.282361
vt 0.407927 0.280693
vt 0.240363 0.261465
vt 0.237694 0.309500
vt 0.231771 0.306020
vt 0.234074 0.260843
vt 0.247530 0.216603
vt 0.240982 0.216186
vt 0.258530 0.173183
vt 0.251405 0.172983
vt 0.271081 0.132209
vt 0.263097 0.132103
vt 0.281144 0.094243
vt 0.272443 0.093891
vt 0.285660 0.058721
vt 0.277539 0.058081
vt 0.674460 0.115819
vt 0.683563 0.156844
vt 0.690787 0.156665
vt 0.698352 0.200092
vt 0.704784 0.199896
vt 0.708068 0.245043
vt 0.714144 0.244834
vt 0.711750 0.290849
vt 0.717769 0.290643
vt 0.709192 0.336512
vt 0.715413 0.336321
vt 0.700932 0.381026
vt 0.707633 0.380864
vt 0.688363 0.423555
vt 0.695881 0.423464
vt 0.673957 0.463517
vt 0.236034 0.471007
vt 0.228068 0.469516
vt 0.241647 0.435127
vt 0.233126 0.433376
vt 0.241153 0.396081
vt 0.233441 0.394316
vt 0.238188 0.356853
vt 0.231621 0.355762
vt 0.393961 0.279122
vt 0.395158 0.308700
vt 0.350081 0.316365
vt 0.349287 0.275223
vt 0.400362 0.250161
vt 0.358267 0.234900
vt 0.414060 0.223853
vt 0.377368 0.196671
vt 0.434402 0.202810
vt 0.407847 0.162247
vt 0.459718 0.190795
vt 0.451827 0.137412
vt 0.487666 0.191038
vt 0.500946 0.141455
vt 0.513384 0.201169
vt 0.540532 0.160350
vt 0.534419 0.218551
vt 0.570214 0.187772
vt 0.549638 0.240916
vt 0.590804 0.220313
vt 0.558646 0.266371
vt 0.602797 0.255833
vt 0.560924 0.293383
vt 0.606287 0.292763
vt 0.556273 0.320239
vt 0.601232 0.329626
vt 0.544845 0.345190
vt 0.587505 0.364968
vt 0.527167 0.366376
vt 0.564722 0.397263
vt 0.503576 0.381511
vt 0.531649 0.424458
vt 0.475483 0.387054
vt 0.485216 0.440616
vt 0.445415 0.379933
vt 0.422541 0.427697
vt 0.420973 0.361786
vt 0.384021 0.395474
vt 0.404136 0.337002
vt 0.361125 0.357036
vt 0.266951 0.264975
vt 0.264637 0.311723
vt 0.275244 0.219002
vt 0.289224 0.174782
vt 0.306569 0.133438
vt 0.320529 0.096162
vt 0.321282 0.057671
vt 0.653230 0.158751
vt 0.671378 0.201606
vt 0.682592 0.246105
vt 0.686490 0.291471
vt 0.683012 0.336693
vt 0.672543 0.380726
vt 0.656062 0.422678
vt 0.635510 0.462171
vt 0.269498 0.481451
vt 0.279875 0.444369
vt 0.275325 0.402608
vt 0.267721 0.358142
vt 0.215564 0.348206
vt 0.214826 0.303751
vt 0.215411 0.389955
vt 0.213178 0.429387
vt 0.207257 0.468787
vt 0.714402 0.423695
vt 0.724698 0.380859
vt 0.731577 0.336140
vt 0.733548 0.290296
vt 0.730040 0.244361
vt 0.721380 0.199381
vt 0.708896 0.156152
vt 0.695224 0.114879
vt 0.257977 0.053145
vt 0.252423 0.092367
vt 0.244025 0.131203
vt 0.233693 0.171951
vt 0.224271 0.214787
vt 0.217764 0.259061
vt 0.199359 0.257160
vt 0.196313 0.301302
vt 0.168792 0.297039
vt 0.172073 0.253813
vt 0.205517 0.213348
vt 0.177773 0.210724
vt 0.214113 0.170923
vt 0.185335 0.168994
vt 0.223384 0.130482
vt 0.193269 0.129458
vt 0.230992 0.091612
vt 0.199479 0.092456
vt 0.235196 0.052097
vt 0.201470 0.058420
vt 0.199114 0.026655
vt 0.728879 0.155516
vt 0.758233 0.155701
vt 0.740072 0.198574
vt 0.767761 0.198100
vt 0.748087 0.243588
vt 0.774900 0.243038
vt 0.751470 0.289709
vt 0.778092 0.289365
vt 0.749824 0.335786
vt 0.776865 0.335698
vt 0.743718 0.380691
vt 0.771779 0.380675
vt 0.734655 0.423650
vt 0.724801 0.464679
vt 0.145995 0.478953
vt 0.185168 0.463876
vt 0.156127 0.448698
vt 0.192368 0.424698
vt 0.162888 0.415732
vt 0.195166 0.385646
vt 0.165921 0.378786
vt 0.195912 0.344650
vt 0.167351 0.339069
vt 0.145507 0.336290
vt 0.147174 0.294756
vt 0.143951 0.375132
vt 0.140880 0.410546
vt 0.134599 0.442118
vt 0.125204 0.470953
vt 0.793657 0.381012
vt 0.798415 0.335589
vt 0.799484 0.288554
vt 0.796284 0.241560
vt 0.789338 0.196286
vt 0.780397 0.154399
vt 0.176960 0.029264
vt 0.178842 0.059579
vt 0.176749 0.092210
vt 0.170896 0.128106
vt 0.163354 0.167140
vt 0.156084 0.208709
vt 0.150514 0.251726
vt 0.209996 0.303132
vt 0.201180 0.301956
vt 0.204207 0.257658
vt 0.212946 0.258565
vt 0.210375 0.347247
vt 0.201065 0.345566
vt 0.210056 0.388823
vt 0.200451 0.386777
vt 0.207629 0.428252
vt 0.197761 0.426018
vt 0.201368 0.467995
vt 0.190863 0.465706
vt 0.708805 0.464695
vt 0.719745 0.423720
vt 0.729353 0.423708
vt 0.729693 0.380830
vt 0.738720 0.380758
vt 0.736356 0.336054
vt 0.745020 0.335892
vt 0.738237 0.290145
vt 0.746748 0.289871
vt 0.734761 0.244157
vt 0.743333 0.243794
vt 0.726278 0.199159
vt 0.735157 0.198779
vt 0.714154 0.155948
vt 0.723644 0.155650
vt 0.711439 0.114449
vt 0.252027 0.052346
vt 0.241214 0.051888
vt 0.246728 0.092070
vt 0.236568 0.091695
vt 0.238564 0.130991
vt 0.228775 0.130638
vt 0.228541 0.171677
vt 0.219251 0.171181
vt 0.219355 0.214409
vt 0.210453 0.213720
vt 0.300417 0.315979
vt 0.333623 0.317349
vt 0.344186 0.360946
vt 0.307851 0.362305
vt 0.301293 0.269458
vt 0.333216 0.273593
vt 0.366520 0.403407
vt 0.323025 0.407647
vt 0.310552 0.223768
vt 0.342544 0.230717
vt 0.328233 0.179843
vt 0.362061 0.189747
vt 0.353896 0.138418
vt 0.393983 0.151529
vt 0.383059 0.099856
vt 0.449045 0.116400
vt 0.511065 0.125098
vt 0.586950 0.129459
vt 0.553747 0.148191
vt 0.616372 0.166466
vt 0.584727 0.179099
vt 0.637216 0.206654
vt 0.606093 0.214661
vt 0.649615 0.248935
vt 0.618564 0.252939
vt 0.653584 0.292230
vt 0.622325 0.292488
vt 0.649152 0.335401
vt 0.617381 0.331953
vt 0.636470 0.377314
vt 0.603646 0.370001
vt 0.615941 0.416975
vt 0.580786 0.405321
vt 0.547425 0.436579
vt 0.496948 0.461872
vt 0.341978 0.451479
vt 0.405590 0.443227
vt 0.650048 0.079024
vt 0.671265 0.500395
vt 0.665712 0.116033
vt 0.661468 0.500146
vt 0.682677 0.463639
vt 0.692829 0.504925
vt 0.660672 0.078695
vt 0.708754 0.073307
vt 0.742178 0.079655
vt 0.757094 0.462851
vt 0.751214 0.500245
vt 0.764385 0.423204
vt 0.786920 0.423190
vt 0.781551 0.459876
vt 0.748895 0.116344
vt 0.773089 0.118163
vt 0.710582 0.505987
vt 0.690600 0.073650
vt 0.702310 0.073074
vt 0.717149 0.114443
vt 0.719126 0.464773
vt 0.716873 0.505781
vt 0.699178 0.505630
vt 0.703025 0.464556
vt 0.701035 0.114650
vt 0.684070 0.074406
vt 0.548162 0.529853
vt 0.507348 0.515190
vt 0.522328 0.472792
vt 0.597268 0.075928
vt 0.502327 0.072504
vt 0.551922 0.042164
vt 0.548685 0.097792
vt 0.628611 0.117637
vt 0.614500 0.500821
vt 0.588821 0.453756
vt 0.561689 0.487856
vt 0.595158 0.541815
vn -0.364512 0.223514 0.903976
vn -0.269892 0.425150 0.863948
vn -0.269892 0.425150 0.863948
vn -0.364512 0.223514 0.903976
vn -0.122520 0.585169 0.801602
vn -0.122519 0.585167 0.801603
vn 0.063180 0.687907 0.723044
vn 0.063181 0.687905 0.723045
vn 0.269032 0.723309 0.635961
vn 0.269033 0.723306 0.635963
vn 0.474886 0.687906 0.548880
vn 0.474885 0.687905 0.548882
vn 0.660589 0.585163 0.470325
vn 0.660588 0.585166 0.470324
vn 0.807962 0.425144 0.407982
vn 0.807961 0.425148 0.407981
vn 0.902579 0.223513 0.367959
vn 0.902582 0.223511 0.367952
vn 0.935184 0.000003 0.354163
vn 0.935186 -0.000002 0.354156
vn 0.902582 -0.223517 0.367948
vn 0.902582 -0.223513 0.367951
vn 0.807962 -0.425153 0.407974
vn 0.807960 -0.425146 0.407983
vn 0.660589 -0.585163 0.470325
vn 0.660587 -0.585163 0.470328
vn 0.474887 -0.687899 0.548888
vn 0.474885 -0.687905 0.548882
vn 0.269037 -0.723302 0.635967
vn 0.269034 -0.723307 0.635962
vn 0.063184 -0.687904 0.723046
vn 0.063182 -0.687906 0.723044
vn -0.122520 -0.585165 0.801605
vn -0.122520 -0.585167 0.801604
vn -0.269896 -0.425150 0.863946
vn -0.269894 -0.425148 0.863948
vn -0.364516 -0.223517 0.903974
vn -0.364515 -0.223514 0.903975
vn -0.397117 -0.000001 0.917768
vn -0.397118 -0.000001 0.917768
vn 0.389606 -0.000000 0.920981
vn 0.389606 -0.000000 0.920981
vn 0.389606 -0.000000 0.920982
vn 0.389606 -0.000000 0.920981
vn 0.389606 -0.000000 0.920981
vn 0.389606 -0.000000 0.920981
vn 0.389606 -0.000000 0.920981
vn 0.389606 0.000001 0.920982
vn 0.389605 0.000001 0.920982
vn 0.389606 0.000000 0.920982
vn 0.389606 -0.000000 0.920981
vn 0.389605 -0.000001 0.920982
vn 0.389605 -0.000001 0.920982
vn 0.389606 -0.000001 0.920982
vn 0.389607 -0.000000 0.920981
vn 0.389607 -0.000000 0.920981
vn 0.389606 -0.000000 0.920981
vn 0.389606 -0.000000 0.920981
vn 0.389606 -0.000000 0.920981
vn 0.389606 -0.000000 0.920981
vn 0.389606 -0.000000 0.920981
vn -0.389606 0.000000 -0.920981
vn -0.389607 0.000000 -0.920981
vn -0.389608 -0.000001 -0.920981
vn -0.389607 0.000000 -0.920981
vn -0.389605 0.000001 -0.920982
vn -0.389606 0.000001 -0.920982
vn -0.389607 0.000001 -0.920981
vn -0.389606 0.000000 -0.920982
vn -0.389606 -0.000001 -0.920982
vn -0.389606 0.000000 -0.920982
vn -0.389606 0.000001 -0.920982
vn -0.389606 0.000000 -0.920982
vn -0.389606 -0.000000 -0.920982
vn -0.389606 -0.000000 -0.920982
vn -0.389606 -0.000001 -0.920981
vn -0.389607 0.000000 -0.920981
vn -0.389608 0.000001 -0.920981
vn -0.389607 -0.000000 -0.920981
vn -0.389606 -0.000001 -0.920982
vn -0.389606 0.000000 -0.920981
vn -0.389607 0.000001 -0.920981
vn -0.949285 -0.012898 0.314151
vn -0.932316 0.313496 0.180299
vn -0.943544 0.258572 0.207038
vn -0.949382 -0.012087 0.313890
vn -0.887449 -0.308868 0.342105
vn -0.887447 -0.308872 0.342105
vn -0.756694 -0.587509 0.286788
vn -0.756696 -0.587506 0.286788
vn -0.553041 -0.808636 0.200634
vn -0.553039 -0.808637 0.200633
vn -0.296428 -0.950608 0.092063
vn -0.296424 -0.950609 0.092061
vn -0.011963 -0.999528 -0.028288
vn -0.011963 -0.999528 -0.028288
vn 0.272494 -0.950611 -0.148615
vn 0.272501 -0.950608 -0.148618
vn 0.529117 -0.808640 -0.257171
vn 0.529119 -0.808639 -0.257171
vn 0.732776 -0.587510 -0.343323
vn 0.732776 -0.587510 -0.343323
vn 0.863529 -0.308871 -0.398643
vn 0.863529 -0.308871 -0.398643
vn 0.908575 -0.000001 -0.417721
vn 0.908575 -0.000002 -0.417721
vn 0.863516 0.308871 -0.398671
vn 0.863515 0.308875 -0.398670
vn 0.732765 0.587508 -0.343351
vn 0.732765 0.587508 -0.343351
vn 0.529119 0.808634 -0.257186
vn 0.529119 0.808633 -0.257186
vn 0.272510 0.950607 -0.148610
vn 0.272504 0.950609 -0.148607
vn -0.011957 0.999529 -0.028260
vn -0.011957 0.999529 -0.028260
vn -0.296426 0.950608 0.092069
vn -0.296423 0.950609 0.092068
vn -0.520836 0.837987 0.162813
vn -0.521313 0.837676 0.162884
vn -0.791478 0.592619 0.149552
vn -0.783411 0.602818 0.151254
vn -0.561842 -0.000002 0.827245
vn -0.523989 0.259494 0.811233
vn -0.616808 0.277803 0.736460
vn -0.657331 -0.000001 0.753602
vn -0.523989 -0.259493 0.811233
vn -0.616808 -0.277803 0.736460
vn -0.414136 -0.493589 0.764762
vn -0.499205 -0.528416 0.686710
vn -0.243037 -0.679368 0.692381
vn -0.316033 -0.727305 0.609222
vn -0.027441 -0.798645 0.601177
vn -0.085223 -0.854997 0.511583
vn 0.211550 -0.839745 0.500075
vn 0.170631 -0.898996 0.403349
vn 0.450537 -0.798646 0.398975
vn 0.426482 -0.854998 0.295114
vn 0.666132 -0.679371 0.307773
vn 0.657288 -0.727308 0.197473
vn 0.837234 -0.493588 0.235393
vn 0.840463 -0.528418 0.119985
vn 0.947087 -0.259491 0.188921
vn 0.958067 -0.277802 0.070236
vn 0.984938 0.000001 0.172906
vn 0.998590 0.000001 0.053094
vn 0.947086 0.259493 0.188919
vn 0.958067 0.277804 0.070236
vn 0.837235 0.493587 0.235390
vn 0.840464 0.528417 0.119986
vn 0.666135 0.679369 0.307771
vn 0.657292 0.727305 0.197472
vn 0.450540 0.798644 0.398974
vn 0.426483 0.854998 0.295111
vn 0.211550 0.839744 0.500077
vn 0.170630 0.898998 0.403347
vn -0.027441 0.798643 0.601179
vn -0.085224 0.854997 0.511583
vn -0.243036 0.679367 0.692383
vn -0.316032 0.727305 0.609222
vn -0.414135 0.493590 0.764762
vn -0.499204 0.528418 0.686710
vn -0.999969 -0.002953 -0.007311
vn -0.960081 0.279387 -0.013701
vn -0.940395 0.247345 -0.233406
vn -0.968495 -0.008001 -0.248903
vn -0.958622 -0.283254 -0.028493
vn -0.929685 -0.243176 -0.276679
vn -0.838711 -0.538784 -0.079220
vn -0.826740 -0.462553 -0.320228
vn -0.651945 -0.741574 -0.158227
vn -0.666399 -0.636652 -0.388055
vn -0.416609 -0.871771 -0.257783
vn -0.464361 -0.748429 -0.473522
vn -0.155737 -0.916634 -0.368141
vn -0.240396 -0.786945 -0.568267
vn 0.105138 -0.871771 -0.478499
vn -0.016436 -0.748428 -0.663012
vn 0.340475 -0.741574 -0.578053
vn 0.185607 -0.636654 -0.748480
vn 0.527241 -0.538784 -0.657060
vn 0.345950 -0.462557 -0.816309
vn 0.647151 -0.283255 -0.707787
vn 0.448896 -0.243181 -0.859858
vn 0.688468 -0.000002 -0.725267
vn 0.484369 -0.000001 -0.874863
vn 0.647150 0.283256 -0.707788
vn 0.448896 0.243179 -0.859858
vn 0.527239 0.538785 -0.657062
vn 0.345949 0.462555 -0.816310
vn 0.340476 0.741571 -0.578055
vn 0.185609 0.636650 -0.748482
vn 0.105138 0.871770 -0.478501
vn -0.016433 0.748424 -0.663016
vn -0.155739 0.916634 -0.368142
vn -0.240401 0.786939 -0.568273
vn -0.416610 0.871770 -0.257784
vn -0.464361 0.748425 -0.473527
vn -0.644177 0.750127 -0.149486
vn -0.649638 0.662257 -0.373345
vn -0.836707 0.544619 -0.057546
vn -0.819249 0.502991 -0.275375
vn 0.213743 0.058421 0.975142
vn 0.236782 0.120812 0.964022
vn 0.231757 0.111338 0.966381
vn 0.213789 0.058682 0.975116
vn 0.279520 0.161043 0.946538
vn 0.278954 0.160816 0.946743
vn 0.328864 0.179567 0.927149
vn 0.328864 0.179567 0.927148
vn 0.382599 0.188807 0.904417
vn 0.382599 0.188807 0.904417
vn 0.436333 0.179566 0.881686
vn 0.436333 0.179566 0.881685
vn 0.484809 0.152747 0.861179
vn 0.484809 0.152747 0.861179
vn 0.523279 0.110979 0.844904
vn 0.523279 0.110979 0.844904
vn 0.547979 0.058346 0.834455
vn 0.547979 0.058346 0.834455
vn 0.556492 -0.000000 0.830853
vn 0.556492 -0.000000 0.830853
vn 0.547981 -0.058346 0.834453
vn 0.547981 -0.058346 0.834453
vn 0.523279 -0.110980 0.844904
vn 0.523280 -0.110980 0.844903
vn 0.484807 -0.152747 0.861180
vn 0.484807 -0.152747 0.861180
vn 0.436331 -0.179563 0.881687
vn 0.436331 -0.179563 0.881687
vn 0.382599 -0.188806 0.904417
vn 0.382599 -0.188806 0.904417
vn 0.328865 -0.179568 0.927148
vn 0.328865 -0.179568 0.927148
vn 0.280390 -0.152750 0.947655
vn 0.280389 -0.152750 0.947655
vn 0.241920 -0.110979 0.963929
vn 0.241920 -0.110978 0.963929
vn 0.217221 -0.058344 0.974377
vn 0.217221 -0.058345 0.974377
vn 0.208711 -0.000000 0.977977
vn 0.208711 -0.000000 0.977977
vn -0.495766 -0.000000 -0.868456
vn -0.490436 0.036537 -0.870711
vn -0.490436 0.036537 -0.870711
vn -0.495766 -0.000000 -0.868456
vn -0.490436 -0.036537 -0.870711
vn -0.490436 -0.036537 -0.870711
vn -0.474970 -0.069498 -0.877253
vn -0.474970 -0.069498 -0.877253
vn -0.450880 -0.095653 -0.887444
vn -0.450880 -0.095653 -0.887444
vn -0.420523 -0.112446 -0.900287
vn -0.420523 -0.112446 -0.900287
vn -0.386872 -0.118233 -0.914522
vn -0.386872 -0.118233 -0.914522
vn -0.353225 -0.112447 -0.928756
vn -0.353225 -0.112447 -0.928756
vn -0.322869 -0.095654 -0.941598
vn -0.322869 -0.095654 -0.941598
vn -0.298776 -0.069497 -0.951789
vn -0.298776 -0.069497 -0.951789
vn -0.283309 -0.036536 -0.958332
vn -0.283309 -0.036536 -0.958332
vn -0.277979 -0.000000 -0.960587
vn -0.277979 -0.000000 -0.960587
vn -0.283310 0.036536 -0.958332
vn -0.283310 0.036536 -0.958332
vn -0.298778 0.069496 -0.951789
vn -0.298778 0.069496 -0.951789
vn -0.322867 0.095654 -0.941598
vn -0.322867 0.095654 -0.941598
vn -0.353223 0.112450 -0.928756
vn -0.353223 0.112450 -0.928756
vn -0.386873 0.118235 -0.914522
vn -0.386873 0.118235 -0.914522
vn -0.420523 0.112445 -0.900287
vn -0.420523 0.112445 -0.900287
vn -0.450879 0.095652 -0.887445
vn -0.450879 0.095652 -0.887445
vn -0.474970 0.069498 -0.877253
vn -0.474970 0.069498 -0.877253
vn 0.729814 -0.296380 -0.616061
vn 0.604344 -0.563750 -0.562987
vn 0.604345 -0.563749 -0.562987
vn 0.729813 -0.296381 -0.616061
vn 0.408926 -0.775933 -0.480320
vn 0.408925 -0.775933 -0.480320
vn 0.162688 -0.912164 -0.376151
vn 0.162687 -0.912164 -0.376151
vn -0.110274 -0.959108 -0.260675
vn -0.110273 -0.959108 -0.260676
vn -0.383235 -0.912167 -0.145200
vn -0.383234 -0.912167 -0.145200
vn -0.629476 -0.775936 -0.041031
vn -0.629476 -0.775936 -0.041031
vn -0.824897 -0.563747 0.041638
vn -0.824897 -0.563748 0.041638
vn -0.950362 -0.296380 0.094711
vn -0.950362 -0.296380 0.094711
vn -0.993595 0.000001 0.112998
vn -0.993595 -0.000001 0.112998
vn -0.950362 0.296380 0.094711
vn -0.950362 0.296380 0.094711
vn -0.824895 0.563750 0.041637
vn -0.824897 0.563748 0.041637
vn -0.629476 0.775935 -0.041034
vn -0.629476 0.775935 -0.041034
vn -0.383230 0.912168 -0.145204
vn -0.383230 0.912168 -0.145203
vn -0.110275 0.959109 -0.260669
vn -0.110275 0.959109 -0.260669
vn 0.162689 0.912166 -0.376146
vn 0.162687 0.912166 -0.376145
vn 0.408927 0.775933 -0.480318
vn 0.408928 0.775933 -0.480319
vn 0.604347 0.563748 -0.562986
vn 0.604346 0.563749 -0.562985
vn 0.729814 0.296380 -0.616060
vn 0.729814 0.296380 -0.616060
vn 0.773048 0.000003 -0.634348
vn 0.773048 0.000003 -0.634348
vn -0.805410 0.305323 0.508028
vn -0.923206 0.305742 0.232837
vn -0.967804 0.000000 0.251707
vn -0.849944 -0.000002 0.526873
vn -0.676155 0.580764 0.453351
vn -0.793775 0.581554 0.178088
vn -0.474832 0.799354 0.368195
vn -0.592185 0.800439 0.092813
vn -0.221164 0.939695 0.260881
vn -0.338172 0.940970 -0.014648
vn 0.060037 0.988057 0.141912
vn -0.056584 0.989396 -0.133765
vn 0.341234 0.939698 0.022958
vn 0.225000 0.940972 -0.252876
vn 0.594908 0.799356 -0.084347
vn 0.479017 0.800438 -0.360337
vn 0.796228 0.580763 -0.169513
vn 0.680601 0.581553 -0.445622
vn 0.925481 0.305326 -0.224190
vn 0.810030 0.305738 -0.500375
vn 0.970021 -0.000004 -0.243020
vn 0.854629 0.000001 -0.519239
vn 0.925486 -0.305327 -0.224168
vn 0.810032 -0.305739 -0.500372
vn 0.796231 -0.580765 -0.169492
vn 0.680603 -0.581554 -0.445616
vn 0.594911 -0.799354 -0.084343
vn 0.479013 -0.800440 -0.360336
vn 0.341234 -0.939698 0.022962
vn 0.224990 -0.940973 -0.252882
vn 0.060037 -0.988056 0.141921
vn -0.056589 -0.989395 -0.133771
vn -0.221163 -0.939695 0.260882
vn -0.338172 -0.940970 -0.014654
vn -0.474834 -0.799353 0.368194
vn -0.592186 -0.800438 0.092813
vn -0.676153 -0.580763 0.453356
vn -0.793774 -0.581553 0.178095
vn -0.805405 -0.305326 0.508033
vn -0.923205 -0.305739 0.232844
vn -0.958517 0.280239 -0.052059
vn -0.839882 0.533053 -0.102237
vn -0.999396 -0.000004 -0.034763
vn -0.958518 -0.280240 -0.052048
vn -0.839885 -0.533050 -0.102233
vn -0.655103 -0.733686 -0.180403
vn -0.422268 -0.862497 -0.278904
vn -0.164170 -0.906883 -0.388086
vn 0.093926 -0.862498 -0.497267
vn 0.326753 -0.733683 -0.595770
vn 0.511517 -0.533049 -0.673951
vn 0.630152 -0.280241 -0.724137
vn 0.671045 -0.000004 -0.741416
vn 0.630172 0.280249 -0.724115
vn 0.511548 0.533055 -0.673922
vn 0.326773 0.733693 -0.595746
vn 0.093937 0.862512 -0.497241
vn -0.164158 0.906898 -0.388057
vn -0.422264 0.862507 -0.278883
vn -0.655102 0.733687 -0.180399
vn -0.624008 0.279124 0.729866
vn -0.505845 0.530930 0.679877
vn -0.321795 0.730754 0.602035
vn -0.089888 0.859048 0.503941
vn 0.167176 0.903267 0.395172
vn 0.424241 0.859063 0.286410
vn 0.656148 0.730755 0.188327
vn 0.840187 0.530924 0.110477
vn 0.958349 0.279124 0.060480
vn 0.999063 0.000003 0.043273
vn 0.958348 -0.279119 0.060510
vn 0.840187 -0.530925 0.110474
vn 0.656144 -0.730764 0.188307
vn 0.424236 -0.859065 0.286411
vn 0.167177 -0.903263 0.395180
vn -0.089881 -0.859048 0.503942
vn -0.321798 -0.730754 0.602034
vn -0.505849 -0.530925 0.679879
vn -0.624005 -0.279124 0.729868
vn -0.664718 -0.000004 0.747094
vn -0.917227 0.306660 0.254271
vn -0.835493 0.307650 0.455305
vn -0.705253 0.585193 0.400209
vn -0.787406 0.583310 0.199353
vn -0.961959 -0.000001 0.273195
vn -0.880369 0.000000 0.474289
vn -0.502402 0.805450 0.314394
vn -0.585207 0.802857 0.113816
vn -0.917227 -0.306660 0.254272
vn -0.835493 -0.307650 0.455306
vn -0.787406 -0.583310 0.199354
vn -0.705253 -0.585192 0.400210
vn -0.585207 -0.802857 0.113816
vn -0.502401 -0.805449 0.314396
vn -0.330424 -0.943813 0.006033
vn -0.246794 -0.946862 0.206266
vn -0.047992 -0.992384 -0.113446
vn 0.036551 -0.995590 0.086403
vn 0.234442 -0.943813 -0.232924
vn 0.319896 -0.946861 -0.033462
vn 0.489224 -0.802857 -0.340705
vn 0.575499 -0.805451 -0.141594
vn 0.691423 -0.583310 -0.426244
vn 0.778352 -0.585195 -0.227409
vn 0.821244 -0.306663 -0.481162
vn 0.908593 -0.307653 -0.282504
vn 0.865976 -0.000000 -0.500085
vn 0.953471 0.000001 -0.301486
vn 0.821244 0.306663 -0.481162
vn 0.908593 0.307654 -0.282502
vn 0.691423 0.583310 -0.426243
vn 0.778353 0.585194 -0.227407
vn 0.489226 0.802856 -0.340706
vn 0.575501 0.805450 -0.141594
vn 0.234443 0.943814 -0.232922
vn 0.319896 0.946862 -0.033462
vn -0.047991 0.992385 -0.113443
vn 0.036551 0.995590 0.086400
vn -0.330423 0.943814 0.006033
vn -0.246794 0.946862 0.206263
s 1
g pCylinder1
usemtl initialShadingGroup
f 1/43/1 2/44/2 101/45/3 82/46/4
f 2/44/2 3/47/5 100/48/6 101/45/3
f 3/47/5 4/49/7 99/50/8 100/48/6
f 4/49/7 5/51/9 98/52/10 99/50/8
f 5/51/9 6/53/11 97/54/12 98/52/10
f 6/53/11 7/55/13 96/56/14 97/54/12
f 7/55/13 8/57/15 95/58/16 96/56/14
f 8/57/15 9/59/17 94/60/18 95/58/16
f 9/59/17 10/61/19 93/62/20 94/60/18
f 10/61/19 11/63/21 92/64/22 93/62/20
f 11/63/21 12/65/23 91/66/24 92/64/22
f 12/65/23 13/67/25 90/68/26 91/66/24
f 13/67/25 14/69/27 89/70/28 90/68/26
f 14/69/27 15/71/29 88/72/30 89/70/28
f 15/71/29 16/73/31 87/74/32 88/72/30
f 16/73/31 17/75/33 86/76/34 87/74/32
f 17/75/33 18/77/35 85/78/36 86/76/34
f 18/77/35 19/79/37 84/80/38 85/78/36
f 19/79/37 20/81/39 83/82/40 84/80/38
f 20/81/39 1/43/1 82/46/4 83/82/40
s 2
f 3/1/41 2/2/42 41/3/43 4/4/44
f 5/5/45 4/4/44 41/3/43 6/6/46
f 7/7/47 6/6/46 41/3/43 8/8/48
f 9/9/49 8/8/48 41/3/43 10/10/50
f 11/11/51 10/10/50 41/3/43 12/12/52
f 13/13/53 12/12/52 41/3/43 14/14/54
f 15/15/55 14/14/54 41/3/43 16/16/56
f 17/17/57 16/16/56 41/3/43 18/18/58
f 19/19/59 18/18/58 41/3/43 20/20/60
f 1/21/61 20/20/60 41/3/43 2/2/42
s 3
f 204/22/62 203/23/63 205/24/64 206/25/65
f 204/22/62 206/25/65 207/26/66 208/27/67
f 204/22/62 208/27/67 209/28/68 210/29/69
f 204/22/62 210/29/69 211/30/70 212/31/71
f 204/22/62 212/31/71 213/32/72 214/33/73
f 204/22/62 214/33/73 215/34/74 216/35/75
f 204/22/62 216/35/75 217/36/76 218/37/77
f 204/22/62 218/37/77 219/38/78 220/39/79
f 204/22/62 220/39/79 221/40/80 222/41/81
f 204/22/62 222/41/81 202/42/82 203/23/63
s 4
f 43/83/83 42/84/84 21/85/85 40/86/86
f 44/87/87 43/83/83 40/86/86 39/88/88
f 45/89/89 44/87/87 39/88/88 38/90/90
f 46/91/91 45/89/89 38/90/90 37/92/92
f 47/93/93 46/91/91 37/92/92 36/94/94
f 48/95/95 47/93/93 36/94/94 35/96/96
f 49/333/97 48/331/95 35/337/96 34/97/98
f 50/98/99 49/333/97 34/97/98 33/99/100
f 51/100/101 50/98/99 33/99/100 32/101/102
f 52/102/103 51/100/101 32/101/102 31/103/104
f 53/104/105 52/102/103 31/103/104 30/105/106
f 54/106/107 53/104/105 30/105/106 29/107/108
f 55/108/109 54/106/107 29/107/108 28/109/110
f 56/110/111 55/108/109 28/109/110 27/111/112
f 57/112/113 56/110/111 27/111/112 26/335/114
f 58/334/115 57/112/113 26/335/114 25/332/116
f 59/115/117 58/113/115 25/114/116 24/116/118
f 60/117/119 59/115/117 24/116/118 23/118/120
f 61/119/121 60/117/119 23/118/120 22/120/122
f 42/84/84 61/119/121 22/120/122 21/85/85
s 1
f 63/121/123 62/122/124 102/123/125 103/124/126
f 64/125/127 63/121/123 103/124/126 104/126/128
f 65/127/129 64/125/127 104/126/128 105/128/130
f 66/129/131 65/127/129 105/128/130 106/130/132
f 67/131/133 66/129/131 106/130/132 107/132/134
f 68/133/135 67/131/133 107/132/134 108/134/136
f 69/135/137 68/133/135 108/134/136 109/136/138
f 70/137/139 69/135/137 109/136/138 110/138/140
f 71/139/141 70/137/139 110/138/140 111/140/142
f 72/141/143 71/139/141 111/140/142 112/142/144
f 73/143/145 72/141/143 112/142/144 113/144/146
f 74/145/147 73/143/145 113/144/146 114/146/148
f 75/147/149 74/145/147 114/146/148 115/148/150
f 76/149/151 75/147/149 115/148/150 116/150/152
f 77/151/153 76/149/151 116/150/152 117/152/154
f 78/153/155 77/151/153 117/152/154 118/154/156
f 79/155/157 78/153/155 118/154/156 119/156/158
f 80/157/159 79/155/157 119/156/158 120/158/160
f 81/159/161 80/157/159 120/158/160 121/160/162
f 62/122/124 81/159/161 121/160/162 102/123/125
f 83/82/40 82/46/4 62/122/124 63/121/123
f 84/80/38 83/82/40 63/121/123 64/125/127
f 85/78/36 84/80/38 64/125/127 65/127/129
f 86/76/34 85/78/36 65/127/129 66/129/131
f 87/74/32 86/76/34 66/129/131 67/131/133
f 88/72/30 87/74/32 67/131/133 68/133/135
f 89/70/28 88/72/30 68/133/135 69/135/137
f 90/68/26 89/70/28 69/135/137 70/137/139
f 91/66/24 90/68/26 70/137/139 71/139/141
f 92/64/22 91/66/24 71/139/141 72/141/143
f 93/62/20 92/64/22 72/141/143 73/143/145
f 94/60/18 93/62/20 73/143/145 74/145/147
f 95/58/16 94/60/18 74/145/147 75/147/149
f 96/56/14 95/58/16 75/147/149 76/149/151
f 97/54/12 96/56/14 76/149/151 77/151/153
f 98/52/10 97/54/12 77/151/153 78/153/155
f 99/50/8 98/52/10 78/153/155 79/155/157
f 100/48/6 99/50/8 79/155/157 80/157/159
f 101/45/3 100/48/6 80/157/159 81/159/161
f 82/46/4 101/45/3 81/159/161 62/122/124
f 123/161/163 122/162/164 42/84/165 43/83/166
f 124/163/167 123/161/163 43/83/166 44/87/168
f 125/164/169 124/163/167 44/87/168 45/89/170
f 126/165/171 125/164/169 45/89/170 46/91/172
f 127/166/173 126/165/171 46/91/172 47/93/174
f 128/167/175 127/166/173 47/93/174 48/95/176
f 129/364/177 128/360/175 48/331/176 49/333/178
f 130/168/179 129/364/177 49/333/178 50/98/180
f 131/169/181 130/168/179 50/98/180 51/100/182
f 132/170/183 131/169/181 51/100/182 52/102/184
f 133/171/185 132/170/183 52/102/184 53/104/186
f 134/172/187 133/171/185 53/104/186 54/106/188
f 135/173/189 134/172/187 54/106/188 55/108/190
f 136/174/191 135/173/189 55/108/190 56/110/192
f 137/175/193 136/174/191 56/110/192 57/112/194
f 138/365/195 137/175/193 57/112/194 58/334/196
f 139/177/197 138/176/195 58/113/196 59/115/198
f 140/178/199 139/177/197 59/115/198 60/117/200
f 141/179/201 140/178/199 60/117/200 61/119/202
f 122/162/164 141/179/201 61/119/202 42/84/165
s 6
f 21/85/203 22/120/204 200/180/205 163/181/206
f 22/120/204 23/118/207 198/182/208 200/180/205
f 23/118/207 24/116/209 196/183/210 198/182/208
f 24/116/209 25/114/211 194/184/212 196/183/210
f 25/332/211 26/335/213 192/354/214 194/336/212
f 26/335/213 27/111/215 190/185/216 192/354/214
f 27/111/215 28/109/217 188/186/218 190/185/216
f 28/109/217 29/107/219 186/187/220 188/186/218
f 29/107/219 30/105/221 184/188/222 186/187/220
f 30/105/221 31/103/223 182/189/224 184/188/222
f 31/103/223 32/101/225 180/190/226 182/189/224
f 32/101/225 33/99/227 178/191/228 180/190/226
f 33/99/227 34/97/229 176/192/230 178/191/228
f 34/97/229 35/337/231 174/356/232 176/192/230
f 35/96/231 36/94/233 172/194/234 174/193/232
f 36/94/233 37/92/235 170/195/236 172/194/234
f 37/92/235 38/90/237 168/196/238 170/195/236
f 38/90/237 39/88/239 166/197/240 168/196/238
f 39/88/239 40/86/241 164/198/242 166/197/240
f 40/86/241 21/85/203 163/181/206 164/198/242
s 7
f 165/199/243 162/200/244 142/201/245 161/202/246
f 167/203/247 165/199/243 161/202/246 160/204/248
f 169/205/249 167/203/247 160/204/248 159/206/250
f 171/207/251 169/205/249 159/206/250 158/208/252
f 173/209/253 171/207/251 158/208/252 157/210/254
f 175/211/255 173/209/253 157/210/254 156/212/256
f 177/350/257 175/338/255 156/339/256 155/345/258
f 179/214/259 177/350/257 155/345/258 154/215/260
f 181/216/261 179/214/259 154/215/260 153/217/262
f 183/218/263 181/216/261 153/217/262 152/219/264
f 185/220/265 183/218/263 152/219/264 151/221/266
f 187/222/267 185/220/265 151/221/266 150/223/268
f 189/224/269 187/222/267 150/223/268 149/225/270
f 191/226/271 189/224/269 149/225/270 148/342/272
f 193/227/273 191/226/271 148/342/272 147/340/274
f 195/352/275 193/227/273 147/340/274 146/341/276
f 197/231/277 195/229/275 146/230/276 145/232/278
f 199/233/279 197/231/277 145/232/278 144/234/280
f 201/235/281 199/233/279 144/234/280 143/236/282
f 162/200/244 201/235/281 143/236/282 142/201/245
s 8
f 142/201/283 143/236/284 203/237/285 202/238/286
f 143/236/284 144/234/287 205/239/288 203/237/285
f 144/234/287 145/232/289 206/240/290 205/239/288
f 145/232/289 146/230/291 207/241/292 206/240/290
f 146/230/291 147/228/293 208/242/294 207/241/292
f 147/340/293 148/342/295 209/343/296 208/344/294
f 148/342/295 149/225/297 210/243/298 209/343/296
f 149/225/297 150/223/299 211/244/300 210/243/298
f 150/223/299 151/221/301 212/245/302 211/244/300
f 151/221/301 152/219/303 213/246/304 212/245/302
f 152/219/303 153/217/305 214/247/306 213/246/304
f 153/217/305 154/215/307 215/248/308 214/247/306
f 154/215/307 155/345/309 216/346/310 215/248/308
f 155/213/309 156/212/311 217/250/312 216/249/310
f 156/212/311 157/210/313 218/251/314 217/250/312
f 157/210/313 158/208/315 219/252/316 218/251/314
f 158/208/315 159/206/317 220/253/318 219/252/316
f 159/206/317 160/204/319 221/254/320 220/253/318
f 160/204/319 161/202/321 222/255/322 221/254/320
f 161/202/321 142/201/283 202/238/286 222/255/322
s 9
f 223/256/323 224/257/324 261/258/325 262/259/326
f 224/257/324 223/256/323 226/260/327 225/261/328
f 225/261/328 226/260/327 228/262/329 227/263/330
f 227/263/330 228/262/329 230/264/331 229/265/332
f 229/265/332 230/264/331 232/266/333 231/267/334
f 231/347/334 232/353/333 234/268/335 233/351/336
f 233/351/336 234/268/335 236/269/337 235/270/338
f 235/270/338 236/269/337 238/271/339 237/272/340
f 237/272/340 238/271/339 240/273/341 239/274/342
f 239/274/342 240/273/341 242/275/343 241/276/344
f 241/276/344 242/275/343 244/277/345 243/278/346
f 243/278/346 244/277/345 246/279/347 245/280/348
f 245/280/348 246/279/347 248/281/349 247/282/350
f 247/282/350 248/281/349 250/355/351 249/283/352
f 249/283/352 250/355/351 252/348/353 251/349/354
f 251/285/354 252/284/353 254/286/355 253/287/356
f 253/287/356 254/286/355 256/288/357 255/289/358
f 255/289/358 256/288/357 258/290/359 257/291/360
f 257/291/360 258/290/359 260/292/361 259/293/362
f 259/293/362 260/292/361 262/259/326 261/258/325
f 162/200/363 224/257/324 225/261/328 201/235/364
f 261/258/325 224/257/324 162/200/363 165/199/365
f 259/293/362 261/258/325 165/199/365 167/203/366
f 257/291/360 259/293/362 167/203/366 169/205/367
f 255/289/358 257/291/360 169/205/367 171/207/368
f 253/287/356 255/289/358 171/207/368 173/209/369
f 251/285/354 253/287/356 173/209/369 175/211/370
f 249/283/352 251/349/354 175/338/370 177/350/371
f 247/282/350 249/283/352 177/350/371 179/214/372
f 245/280/348 247/282/350 179/214/372 181/216/373
f 243/278/346 245/280/348 181/216/373 183/218/374
f 241/276/344 243/278/346 183/218/374 185/220/375
f 239/274/342 241/276/344 185/220/375 187/222/376
f 237/272/340 239/274/342 187/222/376 189/224/377
f 235/270/338 237/272/340 189/224/377 191/226/378
f 233/351/336 235/270/338 191/226/378 193/227/379
f 231/347/334 233/351/336 193/227/379 195/352/380
f 229/265/332 231/267/334 195/229/380 197/231/381
f 227/263/330 229/265/332 197/231/381 199/233/382
f 225/261/328 227/263/330 199/233/382 201/235/364
f 226/260/327 223/256/323 163/181/383 200/180/384
f 198/182/385 228/262/329 226/260/327 200/180/384
f 196/183/386 230/264/331 228/262/329 198/182/385
f 194/184/387 232/266/333 230/264/331 196/183/386
f 192/354/388 234/268/335 232/353/333 194/336/387
f 190/185/389 236/269/337 234/268/335 192/354/388
f 188/186/390 238/271/339 236/269/337 190/185/389
f 186/187/391 240/273/341 238/271/339 188/186/390
f 184/188/392 242/275/343 240/273/341 186/187/391
f 182/189/393 244/277/345 242/275/343 184/188/392
f 180/190/394 246/279/347 244/277/345 182/189/393
f 178/191/395 248/281/349 246/279/347 180/190/394
f 176/192/396 250/355/351 248/281/349 178/191/395
f 174/356/397 252/348/353 250/355/351 176/192/396
f 172/194/398 254/286/355 252/284/353 174/193/397
f 170/195/399 256/288/357 254/286/355 172/194/398
f 168/196/400 258/290/359 256/288/357 170/195/399
f 166/197/401 260/292/361 258/290/359 168/196/400
f 164/198/402 262/259/326 260/292/361 166/197/401
f 163/181/383 223/256/323 262/259/326 164/198/402
s 1
f 263/294/403 264/295/404 266/296/405 265/297/406
f 264/295/404 263/294/403 267/298/407 268/299/408
f 265/297/406 266/296/405 302/300/409 301/301/410
f 268/299/408 267/298/407 269/302/411 270/303/412
f 270/303/412 269/302/411 271/304/413 272/305/414
f 272/305/414 271/304/413 273/306/415 274/307/416
f 274/307/416 273/306/415 275/308/417 276/309/418
f 276/309/418 275/361/417 277/363/419 278/310/420
f 278/310/420 277/363/419 279/311/421 280/312/422
f 280/312/422 279/311/421 281/313/423 282/314/424
f 282/314/424 281/313/423 283/315/425 284/316/426
f 284/316/426 283/315/425 285/317/427 286/318/428
f 286/318/428 285/317/427 287/319/429 288/320/430
f 288/320/430 287/319/429 289/321/431 290/322/432
f 290/322/432 289/321/431 291/323/433 292/324/434
f 292/324/434 291/323/433 293/325/435 294/326/436
f 294/326/436 293/325/435 295/366/437 296/327/438
f 296/327/438 295/366/437 297/367/439 298/328/440
f 298/359/440 297/367/439 299/357/441 300/358/442
f 300/330/442 299/329/441 301/301/410 302/300/409
f 122/162/164 263/294/403 265/297/406 141/179/201
f 263/294/403 122/162/164 123/161/163 267/298/407
f 267/298/407 123/161/163 124/163/167 269/302/411
f 269/302/411 124/163/167 125/164/169 271/304/413
f 271/304/413 125/164/169 126/165/171 273/306/415
f 273/306/415 126/165/171 127/166/173 275/308/417
f 275/361/417 127/362/173 128/360/175 277/363/419
f 277/363/419 128/360/175 129/364/177 279/311/421
f 279/311/421 129/364/177 130/168/179 281/313/423
f 281/313/423 130/168/179 131/169/181 283/315/425
f 283/315/425 131/169/181 132/170/183 285/317/427
f 285/317/427 132/170/183 133/171/185 287/319/429
f 287/319/429 133/171/185 134/172/187 289/321/431
f 289/321/431 134/172/187 135/173/189 291/323/433
f 291/323/433 135/173/189 136/174/191 293/325/435
f 293/325/435 136/174/191 137/175/193 295/366/437
f 295/366/437 137/175/193 138/365/195 297/367/439
f 297/367/439 138/365/195 139/368/197 299/357/441
f 299/329/441 139/177/197 140/178/199 301/301/410
f 301/301/410 140/178/199 141/179/201 265/297/406
f 103/124/126 102/123/125 264/295/404 268/299/408
f 104/126/128 103/124/126 268/299/408 270/303/412
f 105/128/130 104/126/128 270/303/412 272/305/414
f 106/130/132 105/128/130 272/305/414 274/307/416
f 107/132/134 106/130/132 274/307/416 276/309/418
f 108/134/136 107/132/134 276/309/418 278/310/420
f 109/136/138 108/134/136 278/310/420 280/312/422
f 110/138/140 109/136/138 280/312/422 282/314/424
f 111/140/142 110/138/140 282/314/424 284/316/426
f 112/142/144 111/140/142 284/316/426 286/318/428
f 113/144/146 112/142/144 286/318/428 288/320/430
f 114/146/148 113/144/146 288/320/430 290/322/432
f 115/148/150 114/146/148 290/322/432 292/324/434
f 116/150/152 115/148/150 292/324/434 294/326/436
f 117/152/154 116/150/152 294/326/436 296/327/438
f 118/154/156 117/152/154 296/327/438 298/328/440
f 119/156/158 118/154/156 298/328/440 300/330/442
f 120/158/160 119/156/158 300/330/442 302/300/409
f 121/160/162 120/158/160 302/300/409 266/296/405
f 102/123/125 121/160/162 266/296/405 264/295/404
