# This file uses centimeters as units for non-parametric coordinates.

mtllib UVed Statue.mtl
g default
v 32.936611 382.002533 -1882.017090
v 35.012463 382.002533 -1877.942749
v 38.245659 382.002533 -1874.709839
v 42.319733 382.002533 -1872.633911
v 46.835857 382.002533 -1871.918579
v 51.352005 382.002533 -1872.633911
v 55.426052 382.002533 -1874.709839
v 58.659241 382.002533 -1877.942749
v 60.735107 382.002533 -1882.017090
v 61.450417 382.002533 -1886.533203
v 60.735107 382.002533 -1891.049316
v 58.659241 382.002533 -1895.123413
v 55.426052 382.002533 -1898.356323
v 51.352005 382.002533 -1900.432251
v 46.835857 382.002533 -1901.147705
v 42.319740 382.002533 -1900.432251
v 38.245663 382.002533 -1898.356323
v 35.012489 382.002533 -1895.123413
v 32.936611 382.002533 -1891.049316
v 32.221313 382.002533 -1886.533203
v -3.561768 137.294647 -1870.157959
v 3.965076 137.294647 -1855.385742
v 15.688416 137.294647 -1843.662354
v 30.460676 137.294647 -1836.135498
v 46.835854 137.294647 -1833.541748
v 63.211029 137.294647 -1836.135498
v 77.983307 137.294647 -1843.662354
v 89.706619 137.294647 -1855.385742
v 97.233459 137.294647 -1870.157959
v 99.827042 137.294647 -1886.533203
v 97.233459 137.294647 -1902.907959
v 89.706619 137.294647 -1917.680664
v 77.983276 137.294647 -1929.403931
v 63.211029 137.294647 -1936.930664
v 46.835857 137.294647 -1939.524292
v 30.460690 137.294647 -1936.930664
v 15.688437 137.294647 -1929.403931
v 3.965107 137.294647 -1917.680664
v -3.561737 137.294647 -1902.907959
v -6.155312 137.294647 -1886.533203
v 46.835850 384.731750 -1886.533203
v 46.835850 137.294647 -1886.533203
v 3.168400 350.128479 -1872.344238
v 0.921192 350.128479 -1886.533203
v 3.168415 350.128479 -1900.721191
v 9.690132 350.128479 -1913.521118
v 19.847893 350.128479 -1923.678955
v 32.647457 350.128479 -1930.200439
v 46.835854 350.128479 -1932.447876
v 61.024265 350.128479 -1930.200439
v 73.823837 350.128479 -1923.678955
v 83.981606 350.128479 -1913.521118
v 90.503296 350.128479 -1900.721191
v 92.750549 350.128479 -1886.533203
v 90.503296 350.128479 -1872.344238
v 83.981606 350.128479 -1859.545166
v 73.823845 350.128479 -1849.387451
v 61.024269 350.128479 -1842.865723
v 46.835854 350.128479 -1840.618530
v 32.647446 350.128479 -1842.865723
v 19.847885 350.128479 -1849.387451
v 9.690098 350.128479 -1859.545166
v 15.075689 366.750153 -1876.213745
v 13.441242 366.750153 -1886.533203
v 15.075697 366.750153 -1896.852173
v 19.819067 366.750153 -1906.162109
v 27.207012 366.750153 -1913.550049
v 36.516369 366.750153 -1918.292847
v 46.835854 366.750153 -1919.927490
v 57.155357 366.750153 -1918.292847
v 66.464699 366.750153 -1913.550049
v 73.852669 366.750153 -1906.162109
v 78.596008 366.750153 -1896.852173
v 80.230499 366.750153 -1886.533203
v 78.596008 366.750153 -1876.213745
v 73.852669 366.750153 -1866.903931
v 66.464737 366.750153 -1859.516235
v 57.155361 366.750153 -1854.772583
v 46.835854 366.750153 -1853.138550
v 36.516361 366.750153 -1854.772583
v 27.206993 366.750153 -1859.516235
v 19.819042 366.750153 -1866.903931
v -12.821194 256.944397 -1867.149292
v -15.891235 256.944397 -1886.533203
v -12.821156 256.944397 -1905.916748
v -3.911430 256.944397 -1923.403320
v 9.965801 256.944397 -1937.280518
v 27.452122 256.944397 -1946.190063
v 46.835854 256.944397 -1949.260132
v 66.219604 256.944397 -1946.190063
v 83.705910 256.944397 -1937.280518
v 97.583160 256.944397 -1923.403320
v 106.492874 256.944397 -1905.916748
v 109.562973 256.944397 -1886.533203
v 106.492874 256.944397 -1867.149292
v 97.583176 256.944397 -1849.662842
v 83.705925 256.944397 -1835.785889
v 66.219604 256.944397 -1826.876099
v 46.835850 256.944397 -1823.806030
v 27.452108 256.944397 -1826.876099
v 9.965778 256.944397 -1835.785889
v -3.911457 256.944397 -1849.662842
v -6.874950 235.448593 -1869.081543
v -9.638977 235.448593 -1886.533203
v -6.874908 235.448593 -1903.984619
v 1.146748 235.448593 -1919.728271
v 13.640781 235.448593 -1932.222290
v 29.384174 235.448593 -1940.243774
v 46.835854 235.448593 -1943.007935
v 64.287544 235.448593 -1940.243774
v 80.030930 235.448593 -1932.222290
v 92.524979 235.448593 -1919.728271
v 100.546646 235.448593 -1903.984619
v 103.310715 235.448593 -1886.533203
v 100.546646 235.448593 -1869.081543
v 92.524979 235.448593 -1853.337891
v 80.030960 235.448593 -1840.843994
v 64.287544 235.448593 -1832.822388
v 46.835854 235.448593 -1830.058228
v 29.384159 235.448593 -1832.822388
v 13.640762 235.448593 -1840.843994
v 1.146721 235.448593 -1853.337891
v -0.943638 208.346405 -1871.008423
v -3.402439 208.346405 -1886.533203
v -0.943607 208.346405 -1902.057251
v 6.192219 208.346405 -1916.062500
v 17.306528 208.346405 -1927.176636
v 31.311378 208.346405 -1934.312500
v 46.835857 208.346405 -1936.771118
v 62.360359 208.346405 -1934.312500
v 76.365189 208.346405 -1927.176636
v 87.479492 208.346405 -1916.062500
v 94.615334 208.346405 -1902.057251
v 97.074188 208.346405 -1886.533203
v 94.615334 208.346405 -1871.008423
v 87.479507 208.346405 -1857.003784
v 76.365219 208.346405 -1845.889526
v 62.360359 208.346405 -1838.753662
v 46.835854 208.346405 -1836.294556
v 31.311361 208.346405 -1838.753662
v 17.306505 208.346405 -1845.889526
v 6.192196 208.346405 -1857.003784
v -21.391819 295.043854 -1864.364746
v -14.235573 326.714630 -1866.689819
v -24.902912 295.043854 -1886.533203
v -17.378407 326.714630 -1886.533203
v -21.391766 295.043823 -1908.701660
v -14.235546 326.714630 -1906.376465
v -11.202026 295.043823 -1928.700195
v -5.114571 326.714630 -1924.277344
v 4.668873 295.043854 -1944.571045
v 9.091667 326.714630 -1938.483643
v 24.667358 295.043854 -1954.760864
v 26.992567 326.714630 -1947.604614
v 46.835850 295.043854 -1958.271973
v 46.835850 326.714630 -1950.747437
v 69.004349 295.043854 -1954.760864
v 66.679169 326.714630 -1947.604614
v 89.002846 295.043854 -1944.571045
v 84.580040 326.714630 -1938.483643
v 104.873734 295.043823 -1928.700195
v 98.786301 326.714630 -1924.277344
v 115.063446 295.043823 -1908.701660
v 107.907249 326.714630 -1906.376465
v 118.574646 295.043854 -1886.533203
v 111.050095 326.714630 -1886.533203
v 115.063446 295.043854 -1864.364746
v 107.907249 326.714630 -1866.689819
v 104.873734 295.043854 -1844.366211
v 98.786301 326.714630 -1848.788940
v 89.002846 295.043854 -1828.495361
v 84.580078 326.714630 -1834.582764
v 69.004349 295.043854 -1818.305420
v 66.679169 326.714630 -1825.461548
v 46.835850 295.043854 -1814.794434
v 46.835850 326.714630 -1822.318848
v 24.667345 295.043854 -1818.305420
v 26.992546 326.714630 -1825.461548
v 4.668846 295.043854 -1828.495361
v 9.091640 326.714630 -1834.582764
v -11.202061 295.043854 -1844.366211
v -5.114601 326.714630 -1848.788940
v 2.011044 172.820526 -1871.968750
v -0.295712 172.820526 -1886.533203
v 2.011070 172.820526 -1901.097168
v 8.705620 172.820526 -1914.236450
v 19.132622 172.820526 -1924.663208
v 32.271408 172.820526 -1931.357788
v 46.835857 172.820526 -1933.664673
v 61.400322 172.820526 -1931.357788
v 74.539108 172.820526 -1924.663208
v 84.966110 172.820526 -1914.236450
v 91.660660 172.820526 -1901.097168
v 93.967438 172.820526 -1886.533203
v 91.660660 172.820526 -1871.968750
v 84.966125 172.820526 -1858.829590
v 74.539124 172.820526 -1848.402954
v 61.400322 172.820526 -1841.708374
v 46.835854 172.820526 -1839.401489
v 32.271400 172.820526 -1841.708374
v 19.132601 172.820526 -1848.402954
v 8.705597 172.820526 -1858.829590
vt 0.242704 0.784064
vt 0.406507 0.903074
vt 0.361713 0.947865
vt 0.305271 0.976626
vt 0.445175 0.784064
vt 0.435266 0.846632
vt 0.242704 0.986537
vt 0.180137 0.976626
vt 0.406507 0.665054
vt 0.435266 0.721499
vt 0.123694 0.947865
vt 0.078901 0.903074
vt 0.305271 0.591502
vt 0.361713 0.620262
vt 0.050142 0.846632
vt 0.040232 0.784064
vt 0.180137 0.591502
vt 0.242704 0.581594
vt 0.050142 0.721499
vt 0.078901 0.665054
vt 0.123694 0.620262
vt 0.798803 0.635981
vt 0.839132 0.676308
vt 0.691653 0.783462
vt 0.747985 0.610088
vt 0.865027 0.727130
vt 0.873948 0.783462
vt 0.691653 0.601165
vt 0.635320 0.610088
vt 0.865027 0.839795
vt 0.839132 0.890612
vt 0.584502 0.635981
vt 0.544172 0.676308
vt 0.798803 0.930940
vt 0.747985 0.956834
vt 0.518279 0.727130
vt 0.509357 0.783462
vt 0.691653 0.965758
vt 0.635320 0.956834
vt 0.518279 0.839795
vt 0.544172 0.890612
vt 0.584502 0.930940
vt 0.306898 0.562059
vt 0.306898 0.470802
vt 0.348589 0.470802
vt 0.348589 0.562059
vt 0.390277 0.470802
vt 0.390276 0.562059
vt 0.431966 0.470802
vt 0.431966 0.562059
vt 0.473654 0.470802
vt 0.473654 0.562059
vt 0.515343 0.470802
vt 0.515343 0.562059
vt 0.557032 0.470802
vt 0.557032 0.562059
vt 0.598720 0.470802
vt 0.598719 0.562059
vt 0.640410 0.470802
vt 0.640410 0.562059
vt 0.682099 0.470802
vt 0.682099 0.562059
vt 0.723786 0.470802
vt 0.723788 0.562059
vt 0.765477 0.470802
vt 0.765477 0.562059
vt 0.807166 0.470802
vt 0.807165 0.562059
vt 0.848855 0.470802
vt 0.848855 0.562059
vt 0.056765 0.470802
vt 0.056765 0.562059
vt 0.098454 0.470802
vt 0.098454 0.562059
vt 0.140143 0.470802
vt 0.140144 0.562059
vt 0.181831 0.470802
vt 0.181831 0.562059
vt 0.223523 0.470802
vt 0.223521 0.562059
vt 0.265209 0.470802
vt 0.265209 0.562059
vt 0.265209 0.425625
vt 0.306900 0.425625
vt 0.223522 0.425625
vt 0.181832 0.425625
vt 0.140143 0.425625
vt 0.098454 0.425625
vt 0.056765 0.425625
vt 0.807166 0.425625
vt 0.765477 0.425625
vt 0.723787 0.425625
vt 0.682099 0.425625
vt 0.640409 0.425625
vt 0.598721 0.425625
vt 0.557032 0.425625
vt 0.515343 0.425625
vt 0.473654 0.425625
vt 0.431965 0.425625
vt 0.390276 0.425625
vt 0.348588 0.425625
vt 0.265209 0.240136
vt 0.265209 0.203516
vt 0.306898 0.203516
vt 0.306899 0.240136
vt 0.223521 0.240136
vt 0.223521 0.203516
vt 0.181832 0.240136
vt 0.181832 0.203516
vt 0.140143 0.240136
vt 0.140143 0.203516
vt 0.098454 0.240136
vt 0.098454 0.203516
vt 0.056765 0.240136
vt 0.056765 0.203516
vt 0.848855 0.240136
vt 0.848855 0.203516
vt 0.807166 0.240136
vt 0.807166 0.203516
vt 0.765477 0.240136
vt 0.765477 0.203516
vt 0.723788 0.240136
vt 0.723788 0.203516
vt 0.682099 0.240136
vt 0.682099 0.203516
vt 0.640410 0.240136
vt 0.640410 0.203516
vt 0.598721 0.240136
vt 0.598721 0.203516
vt 0.557032 0.240136
vt 0.557032 0.203516
vt 0.515343 0.240136
vt 0.515343 0.203516
vt 0.473654 0.240136
vt 0.473654 0.203516
vt 0.431965 0.240136
vt 0.431965 0.203516
vt 0.390276 0.240136
vt 0.390276 0.203516
vt 0.348588 0.240136
vt 0.348588 0.203516
vt 0.265209 0.157344
vt 0.306899 0.157344
vt 0.223522 0.157344
vt 0.181832 0.157344
vt 0.140143 0.157344
vt 0.098454 0.157344
vt 0.056765 0.157344
vt 0.848855 0.157344
vt 0.807166 0.157344
vt 0.765477 0.157344
vt 0.723787 0.157344
vt 0.682099 0.157344
vt 0.640410 0.157344
vt 0.598721 0.157344
vt 0.557032 0.157344
vt 0.515343 0.157344
vt 0.473654 0.157344
vt 0.431965 0.157344
vt 0.390276 0.157344
vt 0.348588 0.157344
vt 0.265209 0.096821
vt 0.306898 0.096821
vt 0.223522 0.096821
vt 0.181832 0.096821
vt 0.140143 0.096821
vt 0.098454 0.096821
vt 0.056765 0.096821
vt 0.848855 0.096821
vt 0.807166 0.096821
vt 0.765477 0.096821
vt 0.723787 0.096821
vt 0.682099 0.096821
vt 0.640410 0.096821
vt 0.598721 0.096821
vt 0.557032 0.096821
vt 0.515343 0.096821
vt 0.473654 0.096821
vt 0.431965 0.096821
vt 0.390276 0.096821
vt 0.348588 0.096821
vt 0.306898 0.305043
vt 0.348587 0.305043
vt 0.348588 0.365090
vt 0.306899 0.365090
vt 0.265209 0.365090
vt 0.265209 0.305043
vt 0.223521 0.365090
vt 0.223521 0.305043
vt 0.181832 0.365090
vt 0.181832 0.305043
vt 0.140143 0.365090
vt 0.140143 0.305043
vt 0.098454 0.365090
vt 0.098454 0.305043
vt 0.056765 0.365090
vt 0.056765 0.305043
vt 0.848855 0.365090
vt 0.807166 0.365090
vt 0.807166 0.305043
vt 0.765477 0.365090
vt 0.765477 0.305043
vt 0.723788 0.365090
vt 0.723788 0.305043
vt 0.682099 0.365090
vt 0.682099 0.305043
vt 0.640410 0.365090
vt 0.640410 0.305043
vt 0.598721 0.365090
vt 0.598721 0.305043
vt 0.557032 0.365090
vt 0.557032 0.305043
vt 0.515343 0.365090
vt 0.515343 0.305043
vt 0.473654 0.365090
vt 0.473654 0.305043
vt 0.431966 0.365090
vt 0.431965 0.305043
vt 0.390276 0.365090
vt 0.390276 0.305043
vt 0.265209 0.036298
vt 0.306899 0.036298
vt 0.223522 0.036298
vt 0.181832 0.036298
vt 0.140143 0.036298
vt 0.098454 0.036298
vt 0.056765 0.036298
vt 0.848855 0.036298
vt 0.807166 0.036298
vt 0.765477 0.036298
vt 0.723787 0.036298
vt 0.682099 0.036298
vt 0.640410 0.036298
vt 0.598721 0.036298
vt 0.557032 0.036298
vt 0.515343 0.036298
vt 0.473654 0.036298
vt 0.431965 0.036298
vt 0.390276 0.036298
vt 0.348588 0.036298
vt 0.890544 0.562059
vt 0.890544 0.425625
vt 0.890544 0.470802
vt 0.890544 0.203516
vt 0.890544 0.157344
vt 0.890544 0.305043
vt 0.890544 0.240136
vt 0.848855 0.305043
vt 0.890544 0.365090
vt 0.848855 0.425625
vt 0.890544 0.036298
vt 0.890544 0.096821
vn -0.599578 0.776244 0.194811
vn -0.703747 0.672648 0.228657
vn -0.598643 0.672646 0.434942
vn -0.510032 0.776245 0.370554
vn -0.434943 0.672643 0.598645
vn -0.370554 0.776247 0.510030
vn -0.228660 0.672644 0.703750
vn -0.194813 0.776249 0.599571
vn 0.000000 0.672644 0.739966
vn 0.000000 0.776246 0.630431
vn 0.228660 0.672644 0.703750
vn 0.194813 0.776250 0.599570
vn 0.434944 0.672643 0.598645
vn 0.370554 0.776247 0.510030
vn 0.598644 0.672646 0.434940
vn 0.510033 0.776245 0.370554
vn 0.703747 0.672648 0.228658
vn 0.599578 0.776244 0.194812
vn 0.739963 0.672648 0.000000
vn 0.630428 0.776248 -0.000000
vn 0.703749 0.672645 -0.228662
vn 0.599583 0.776239 -0.194817
vn 0.598649 0.672645 -0.434934
vn 0.510032 0.776245 -0.370555
vn 0.434929 0.672647 -0.598650
vn 0.370544 0.776247 -0.510037
vn 0.228660 0.672648 -0.703747
vn 0.194817 0.776240 -0.599582
vn -0.000000 0.672649 -0.739962
vn -0.000000 0.776240 -0.630437
vn -0.228660 0.672648 -0.703747
vn -0.194817 0.776240 -0.599581
vn -0.434929 0.672647 -0.598650
vn -0.370544 0.776247 -0.510037
vn -0.598650 0.672645 -0.434934
vn -0.510032 0.776245 -0.370555
vn -0.703749 0.672645 -0.228661
vn -0.599583 0.776239 -0.194816
vn -0.739963 0.672648 -0.000000
vn -0.630428 0.776248 0.000000
vn -0.107909 0.983005 0.148514
vn -0.054040 0.984592 0.166310
vn -0.000000 1.000000 -0.000000
vn -0.141474 0.984591 0.102787
vn 0.000000 0.983007 0.183569
vn 0.054040 0.984592 0.166308
vn 0.107909 0.983006 0.148509
vn 0.141474 0.984592 0.102784
vn 0.174582 0.983007 0.056730
vn 0.174870 0.984592 -0.000001
vn 0.174594 0.983005 -0.056733
vn 0.141474 0.984591 -0.102788
vn 0.107896 0.983007 -0.148515
vn 0.054033 0.984592 -0.166311
vn 0.000000 0.983006 -0.183571
vn -0.054033 0.984592 -0.166309
vn -0.107896 0.983007 -0.148511
vn -0.141474 0.984592 -0.102785
vn -0.174594 0.983005 -0.056731
vn -0.174870 0.984592 0.000000
vn -0.174583 0.983007 0.056731
vn 0.000000 -1.000000 0.000000
vn 0.000000 -1.000000 0.000000
vn 0.000000 -1.000000 0.000000
vn 0.000000 -1.000000 0.000000
vn 0.000000 -1.000000 0.000000
vn 0.000000 -1.000000 0.000000
vn 0.000000 -1.000000 0.000000
vn 0.000000 -1.000000 0.000000
vn 0.000000 -1.000000 0.000000
vn 0.000000 -1.000000 0.000000
vn 0.000000 -1.000000 0.000000
vn 0.000000 -1.000000 0.000000
vn 0.000000 -1.000000 0.000000
vn 0.000000 -1.000000 0.000000
vn 0.000000 -1.000000 -0.000000
vn 0.000000 -1.000000 0.000000
vn 0.000000 -1.000000 -0.000000
vn 0.000000 -1.000000 -0.000000
vn 0.000000 -1.000000 0.000000
vn 0.000000 -1.000000 0.000000
vn 0.000000 -1.000000 0.000000
vn -0.791279 0.611455 -0.000001
vn -0.752552 0.611454 0.244519
vn -0.752551 0.611456 -0.244519
vn -0.640162 0.611455 -0.465098
vn -0.465100 0.611456 -0.640160
vn -0.244516 0.611457 -0.752550
vn -0.000000 0.611459 -0.791276
vn 0.244516 0.611457 -0.752550
vn 0.465100 0.611456 -0.640160
vn 0.640162 0.611455 -0.465098
vn 0.752551 0.611455 -0.244519
vn 0.791280 0.611454 0.000000
vn 0.752552 0.611454 0.244520
vn 0.640158 0.611453 0.465105
vn 0.465107 0.611451 0.640158
vn 0.244517 0.611454 0.752553
vn 0.000000 0.611454 0.791280
vn -0.244517 0.611455 0.752552
vn -0.465107 0.611452 0.640158
vn -0.640157 0.611453 0.465106
vn -0.969215 -0.246215 -0.000001
vn -0.967962 -0.251097 -0.000001
vn -0.920588 -0.251097 0.299113
vn -0.921779 -0.246214 0.299503
vn -0.921779 -0.246215 -0.299503
vn -0.920586 -0.251097 -0.299117
vn -0.784114 -0.246214 -0.569687
vn -0.783101 -0.251098 -0.568949
vn -0.569687 -0.246215 -0.784114
vn -0.568950 -0.251099 -0.783100
vn -0.299502 -0.246216 -0.921779
vn -0.299111 -0.251098 -0.920588
vn -0.000000 -0.246217 -0.969215
vn -0.000000 -0.251098 -0.967962
vn 0.299502 -0.246216 -0.921779
vn 0.299111 -0.251098 -0.920588
vn 0.569687 -0.246215 -0.784114
vn 0.568950 -0.251098 -0.783100
vn 0.784114 -0.246214 -0.569687
vn 0.783100 -0.251098 -0.568950
vn 0.921779 -0.246214 -0.299504
vn 0.920586 -0.251097 -0.299117
vn 0.969215 -0.246214 0.000000
vn 0.967962 -0.251097 -0.000000
vn 0.921779 -0.246213 0.299503
vn 0.920587 -0.251097 0.299114
vn 0.784112 -0.246212 0.569691
vn 0.783098 -0.251097 0.568954
vn 0.569688 -0.246213 0.784114
vn 0.568950 -0.251097 0.783100
vn 0.299505 -0.246214 0.921778
vn 0.299119 -0.251095 0.920586
vn 0.000000 -0.246214 0.969216
vn 0.000000 -0.251094 0.967963
vn -0.299505 -0.246214 0.921778
vn -0.299119 -0.251095 0.920586
vn -0.569688 -0.246213 0.784114
vn -0.568950 -0.251097 0.783100
vn -0.784111 -0.246213 0.569692
vn -0.783097 -0.251097 0.568954
vn -0.988422 -0.151727 -0.000001
vn -0.940046 -0.151727 0.305438
vn -0.940045 -0.151728 -0.305440
vn -0.799653 -0.151728 -0.580976
vn -0.580979 -0.151728 -0.799651
vn -0.305437 -0.151728 -0.940046
vn -0.000000 -0.151727 -0.988422
vn 0.305437 -0.151728 -0.940046
vn 0.580979 -0.151728 -0.799651
vn 0.799653 -0.151728 -0.580976
vn 0.940045 -0.151728 -0.305440
vn 0.988422 -0.151727 -0.000000
vn 0.940046 -0.151727 0.305439
vn 0.799650 -0.151727 0.580981
vn 0.580979 -0.151727 0.799651
vn 0.305443 -0.151727 0.940045
vn -0.000000 -0.151727 0.988422
vn -0.305443 -0.151727 0.940045
vn -0.580979 -0.151727 0.799652
vn -0.799649 -0.151727 0.580982
vn -0.999162 0.040938 -0.000001
vn -0.950260 0.040938 0.308755
vn -0.950259 0.040939 -0.308758
vn -0.808342 0.040939 -0.587288
vn -0.587291 0.040940 -0.808340
vn -0.308758 0.040940 -0.950259
vn -0.000000 0.040941 -0.999162
vn 0.308758 0.040940 -0.950259
vn 0.587291 0.040940 -0.808340
vn 0.808342 0.040940 -0.587288
vn 0.950259 0.040939 -0.308758
vn 0.999162 0.040938 -0.000000
vn 0.950260 0.040938 0.308756
vn 0.808337 0.040938 0.587295
vn 0.587292 0.040939 0.808339
vn 0.308764 0.040939 0.950257
vn 0.000000 0.040938 0.999162
vn -0.308764 0.040939 0.950257
vn -0.587292 0.040939 0.808339
vn -0.808337 0.040938 0.587295
vn -0.950866 -0.020029 0.308953
vn -0.808854 -0.020028 0.587668
vn -0.743088 0.395400 0.539888
vn -0.873554 0.395401 0.283834
vn -0.918508 0.395403 -0.000001
vn -0.999799 -0.020029 -0.000001
vn -0.873552 0.395403 -0.283836
vn -0.950866 -0.020030 -0.308955
vn -0.743089 0.395403 -0.539884
vn -0.808856 -0.020029 -0.587665
vn -0.539886 0.395402 -0.743088
vn -0.587667 -0.020029 -0.808855
vn -0.283833 0.395403 -0.873553
vn -0.308955 -0.020031 -0.950866
vn -0.000000 0.395404 -0.918507
vn -0.000000 -0.020032 -0.999799
vn 0.283833 0.395403 -0.873553
vn 0.308955 -0.020031 -0.950866
vn 0.539886 0.395402 -0.743088
vn 0.587666 -0.020029 -0.808855
vn 0.743090 0.395403 -0.539884
vn 0.808856 -0.020029 -0.587665
vn 0.873553 0.395403 -0.283836
vn 0.950866 -0.020029 -0.308956
vn 0.918508 0.395402 -0.000000
vn 0.999799 -0.020029 0.000000
vn 0.873554 0.395401 0.283834
vn 0.950866 -0.020029 0.308954
vn 0.743089 0.395400 0.539887
vn 0.808855 -0.020028 0.587667
vn 0.539889 0.395401 0.743087
vn 0.587668 -0.020029 0.808854
vn 0.283834 0.395402 0.873553
vn 0.308956 -0.020031 0.950865
vn -0.000000 0.395402 0.918508
vn 0.000000 -0.020031 0.999799
vn -0.283835 0.395402 0.873553
vn -0.308956 -0.020031 0.950865
vn -0.539888 0.395401 0.743087
vn -0.587668 -0.020029 0.808854
vn -0.986669 0.162741 -0.000001
vn -0.938379 0.162740 0.304895
vn -0.938378 0.162741 -0.304898
vn -0.798236 0.162742 -0.579944
vn -0.579945 0.162743 -0.798234
vn -0.304896 0.162742 -0.938378
vn 0.000000 0.162741 -0.986669
vn 0.304896 0.162742 -0.938378
vn 0.579945 0.162743 -0.798234
vn 0.798236 0.162741 -0.579944
vn 0.938378 0.162740 -0.304898
vn 0.986669 0.162740 0.000000
vn 0.938379 0.162739 0.304896
vn 0.798232 0.162738 0.579950
vn 0.579948 0.162739 0.798233
vn 0.304905 0.162742 0.938375
vn 0.000000 0.162743 0.986669
vn -0.304905 0.162742 0.938375
vn -0.579948 0.162740 0.798233
vn -0.798232 0.162739 0.579950
s 1
g pCylinder2
usemtl initialShadingGroup
f 1/43/1 63/44/2 82/45/3 2/46/4
f 2/46/4 82/45/3 81/47/5 3/48/6
f 3/48/6 81/47/5 80/49/7 4/50/8
f 4/50/8 80/49/7 79/51/9 5/52/10
f 5/52/10 79/51/9 78/53/11 6/54/12
f 6/54/12 78/53/11 77/55/13 7/56/14
f 7/56/14 77/55/13 76/57/15 8/58/16
f 8/58/16 76/57/15 75/59/17 9/60/18
f 9/60/18 75/59/17 74/61/19 10/62/20
f 10/62/20 74/61/19 73/63/21 11/64/22
f 11/64/22 73/63/21 72/65/23 12/66/24
f 12/66/24 72/65/23 71/67/25 13/68/26
f 13/68/26 71/67/25 70/69/27 14/70/28
f 14/70/28 70/69/27 69/243/29 15/241/30
f 15/72/30 69/71/29 68/73/31 16/74/32
f 16/74/32 68/73/31 67/75/33 17/76/34
f 17/76/34 67/75/33 66/77/35 18/78/36
f 18/78/36 66/77/35 65/79/37 19/80/38
f 19/80/38 65/79/37 64/81/39 20/82/40
f 20/82/40 64/81/39 63/44/2 1/43/1
s 2
f 3/22/41 4/25/42 41/24/43 2/23/44
f 5/28/45 6/29/46 41/24/43 4/25/42
f 7/32/47 8/33/48 41/24/43 6/29/46
f 9/36/49 10/37/50 41/24/43 8/33/48
f 11/40/51 12/41/52 41/24/43 10/37/50
f 13/42/53 14/39/54 41/24/43 12/41/52
f 15/38/55 16/35/56 41/24/43 14/39/54
f 17/34/57 18/31/58 41/24/43 16/35/56
f 19/30/59 20/27/60 41/24/43 18/31/58
f 1/26/61 2/23/44 41/24/43 20/27/60
s 3
f 42/1/62 24/4/63 23/3/64 22/2/65
f 42/1/62 26/8/66 25/7/67 24/4/63
f 42/1/62 28/12/68 27/11/69 26/8/66
f 42/1/62 30/16/70 29/15/71 28/12/68
f 42/1/62 32/20/72 31/19/73 30/16/70
f 42/1/62 34/17/74 33/21/75 32/20/72
f 42/1/62 36/13/76 35/18/77 34/17/74
f 42/1/62 38/9/78 37/14/79 36/13/76
f 42/1/62 40/5/80 39/10/81 38/9/78
f 42/1/62 22/2/65 21/6/82 40/5/80
s 1
f 64/81/39 44/83/83 43/84/84 63/44/2
f 65/79/37 45/85/85 44/83/83 64/81/39
f 66/77/35 46/86/86 45/85/85 65/79/37
f 67/75/33 47/87/87 46/86/86 66/77/35
f 68/73/31 48/88/88 47/87/87 67/75/33
f 69/71/29 49/89/89 48/88/88 68/73/31
f 70/69/27 50/250/90 49/242/89 69/243/29
f 71/67/25 51/90/91 50/250/90 70/69/27
f 72/65/23 52/91/92 51/90/91 71/67/25
f 73/63/21 53/92/93 52/91/92 72/65/23
f 74/61/19 54/93/94 53/92/93 73/63/21
f 75/59/17 55/94/95 54/93/94 74/61/19
f 76/57/15 56/95/96 55/94/95 75/59/17
f 77/55/13 57/96/97 56/95/96 76/57/15
f 78/53/11 58/97/98 57/96/97 77/55/13
f 79/51/9 59/98/99 58/97/98 78/53/11
f 80/49/7 60/99/100 59/98/99 79/51/9
f 81/47/5 61/100/101 60/99/100 80/49/7
f 82/45/3 62/101/102 61/100/101 81/47/5
f 63/44/2 43/84/84 62/101/102 82/45/3
f 84/102/103 104/103/104 103/104/105 83/105/106
f 85/106/107 105/107/108 104/103/104 84/102/103
f 86/108/109 106/109/110 105/107/108 85/106/107
f 87/110/111 107/111/112 106/109/110 86/108/109
f 88/112/113 108/113/114 107/111/112 87/110/111
f 89/114/115 109/115/116 108/113/114 88/112/113
f 90/116/117 110/117/118 109/244/116 89/247/115
f 91/118/119 111/119/120 110/117/118 90/116/117
f 92/120/121 112/121/122 111/119/120 91/118/119
f 93/122/123 113/123/124 112/121/122 92/120/121
f 94/124/125 114/125/126 113/123/124 93/122/123
f 95/126/127 115/127/128 114/125/126 94/124/125
f 96/128/129 116/129/130 115/127/128 95/126/127
f 97/130/131 117/131/132 116/129/130 96/128/129
f 98/132/133 118/133/134 117/131/132 97/130/131
f 99/134/135 119/135/136 118/133/134 98/132/133
f 100/136/137 120/137/138 119/135/136 99/134/135
f 101/138/139 121/139/140 120/137/138 100/136/137
f 102/140/141 122/141/142 121/139/140 101/138/139
f 83/105/106 103/104/105 122/141/142 102/140/141
f 104/103/104 124/142/143 123/143/144 103/104/105
f 105/107/108 125/144/145 124/142/143 104/103/104
f 106/109/110 126/145/146 125/144/145 105/107/108
f 107/111/112 127/146/147 126/145/146 106/109/110
f 108/113/114 128/147/148 127/146/147 107/111/112
f 109/115/116 129/148/149 128/147/148 108/113/114
f 110/117/118 130/149/150 129/245/149 109/244/116
f 111/119/120 131/150/151 130/149/150 110/117/118
f 112/121/122 132/151/152 131/150/151 111/119/120
f 113/123/124 133/152/153 132/151/152 112/121/122
f 114/125/126 134/153/154 133/152/153 113/123/124
f 115/127/128 135/154/155 134/153/154 114/125/126
f 116/129/130 136/155/156 135/154/155 115/127/128
f 117/131/132 137/156/157 136/155/156 116/129/130
f 118/133/134 138/157/158 137/156/157 117/131/132
f 119/135/136 139/158/159 138/157/158 118/133/134
f 120/137/138 140/159/160 139/158/159 119/135/136
f 121/139/140 141/160/161 140/159/160 120/137/138
f 122/141/142 142/161/162 141/160/161 121/139/140
f 103/104/105 123/143/144 142/161/162 122/141/142
f 124/142/143 184/162/163 183/163/164 123/143/144
f 125/144/145 185/164/165 184/162/163 124/142/143
f 126/145/146 186/165/166 185/164/165 125/144/145
f 127/146/147 187/166/167 186/165/166 126/145/146
f 128/147/148 188/167/168 187/166/167 127/146/147
f 129/148/149 189/168/169 188/167/168 128/147/148
f 130/149/150 190/169/170 189/252/169 129/245/149
f 131/150/151 191/170/171 190/169/170 130/149/150
f 132/151/152 192/171/172 191/170/171 131/150/151
f 133/152/153 193/172/173 192/171/172 132/151/152
f 134/153/154 194/173/174 193/172/173 133/152/153
f 135/154/155 195/174/175 194/173/174 134/153/154
f 136/155/156 196/175/176 195/174/175 135/154/155
f 137/156/157 197/176/177 196/175/176 136/155/156
f 138/157/158 198/177/178 197/176/177 137/156/157
f 139/158/159 199/178/179 198/177/178 138/157/158
f 140/159/160 200/179/180 199/178/179 139/158/159
f 141/160/161 201/180/181 200/179/180 140/159/160
f 142/161/162 202/181/182 201/180/181 141/160/161
f 123/143/144 183/163/164 202/181/182 142/161/162
f 143/182/183 181/183/184 182/184/185 144/185/186
f 144/185/186 146/186/187 145/187/188 143/182/183
f 146/186/187 148/188/189 147/189/190 145/187/188
f 148/188/189 150/190/191 149/191/192 147/189/190
f 150/190/191 152/192/193 151/193/194 149/191/192
f 152/192/193 154/194/195 153/195/196 151/193/194
f 154/194/195 156/196/197 155/197/198 153/195/196
f 156/249/197 158/198/199 157/248/200 155/246/198
f 158/198/199 160/199/201 159/200/202 157/248/200
f 160/199/201 162/201/203 161/202/204 159/200/202
f 162/201/203 164/203/205 163/204/206 161/202/204
f 164/203/205 166/205/207 165/206/208 163/204/206
f 166/205/207 168/207/209 167/208/210 165/206/208
f 168/207/209 170/209/211 169/210/212 167/208/210
f 170/209/211 172/211/213 171/212/214 169/210/212
f 172/211/213 174/213/215 173/214/216 171/212/214
f 174/213/215 176/215/217 175/216/218 173/214/216
f 176/215/217 178/217/219 177/218/220 175/216/218
f 178/217/219 180/219/221 179/220/222 177/218/220
f 180/219/221 182/184/185 181/183/184 179/220/222
f 145/187/188 84/102/103 83/105/106 143/182/183
f 147/189/190 85/106/107 84/102/103 145/187/188
f 149/191/192 86/108/109 85/106/107 147/189/190
f 151/193/194 87/110/111 86/108/109 149/191/192
f 153/195/196 88/112/113 87/110/111 151/193/194
f 155/197/198 89/114/115 88/112/113 153/195/196
f 157/248/200 90/116/117 89/247/115 155/246/198
f 159/200/202 91/118/119 90/116/117 157/248/200
f 161/202/204 92/120/121 91/118/119 159/200/202
f 163/204/206 93/122/123 92/120/121 161/202/204
f 165/206/208 94/124/125 93/122/123 163/204/206
f 167/208/210 95/126/127 94/124/125 165/206/208
f 169/210/212 96/128/129 95/126/127 167/208/210
f 171/212/214 97/130/131 96/128/129 169/210/212
f 173/214/216 98/132/133 97/130/131 171/212/214
f 175/216/218 99/134/135 98/132/133 173/214/216
f 177/218/220 100/136/137 99/134/135 175/216/218
f 179/220/222 101/138/139 100/136/137 177/218/220
f 181/183/184 102/140/141 101/138/139 179/220/222
f 143/182/183 83/105/106 102/140/141 181/183/184
f 44/83/83 146/186/187 144/185/186 43/84/84
f 45/85/85 148/188/189 146/186/187 44/83/83
f 46/86/86 150/190/191 148/188/189 45/85/85
f 47/87/87 152/192/193 150/190/191 46/86/86
f 48/88/88 154/194/195 152/192/193 47/87/87
f 49/89/89 156/196/197 154/194/195 48/88/88
f 50/250/90 158/198/199 156/249/197 49/242/89
f 51/90/91 160/199/201 158/198/199 50/250/90
f 52/91/92 162/201/203 160/199/201 51/90/91
f 53/92/93 164/203/205 162/201/203 52/91/92
f 54/93/94 166/205/207 164/203/205 53/92/93
f 55/94/95 168/207/209 166/205/207 54/93/94
f 56/95/96 170/209/211 168/207/209 55/94/95
f 57/96/97 172/211/213 170/209/211 56/95/96
f 58/97/98 174/213/215 172/211/213 57/96/97
f 59/98/99 176/215/217 174/213/215 58/97/98
f 60/99/100 178/217/219 176/215/217 59/98/99
f 61/100/101 180/219/221 178/217/219 60/99/100
f 62/101/102 182/184/185 180/219/221 61/100/101
f 43/84/84 144/185/186 182/184/185 62/101/102
f 184/162/163 40/221/223 21/222/224 183/163/164
f 185/164/165 39/223/225 40/221/223 184/162/163
f 186/165/166 38/224/226 39/223/225 185/164/165
f 187/166/167 37/225/227 38/224/226 186/165/166
f 188/167/168 36/226/228 37/225/227 187/166/167
f 189/168/169 35/227/229 36/226/228 188/167/168
f 190/169/170 34/228/230 35/251/229 189/252/169
f 191/170/171 33/229/231 34/228/230 190/169/170
f 192/171/172 32/230/232 33/229/231 191/170/171
f 193/172/173 31/231/233 32/230/232 192/171/172
f 194/173/174 30/232/234 31/231/233 193/172/173
f 195/174/175 29/233/235 30/232/234 194/173/174
f 196/175/176 28/234/236 29/233/235 195/174/175
f 197/176/177 27/235/237 28/234/236 196/175/176
f 198/177/178 26/236/238 27/235/237 197/176/177
f 199/178/179 25/237/239 26/236/238 198/177/178
f 200/179/180 24/238/240 25/237/239 199/178/179
f 201/180/181 23/239/241 24/238/240 200/179/180
f 202/181/182 22/240/242 23/239/241 201/180/181
f 183/163/164 21/222/224 22/240/242 202/181/182
